<?xml version="1.0" encoding="UTF-8"?>
<svg id="Layer_1" xmlns="http://www.w3.org/2000/svg" xmlns:xlink="http://www.w3.org/1999/xlink" version="1.1" viewBox="0 0 1000 1000">
  <!-- Generator: Adobe Illustrator 29.1.0, SVG Export Plug-In . SVG Version: 2.1.0 Build 142)  -->
  <defs>
    <clipPath id="clippath">
      <rect x="31.1" y="31.1" width="937.8" height="937.8" fill="none"/>
    </clipPath>
  </defs>
  <g clip-path="url(#clippath)">
    <g>
      <path d="M819.5,91.1c31.1,0,56.2,25.2,56.2,56.3s-25.2,56.3-56.2,56.3-56.2-25.2-56.2-56.3,25.2-56.3,56.2-56.3Z" fill="none" stroke="#fff" stroke-linecap="round" stroke-linejoin="round" stroke-width="15"/>
      <path d="M733.5,269.5c0-34.7,20.9-64.8,50.7-78.4M854.7,191.2c29.8,13.5,50.7,43.6,50.7,78.4" fill="none" stroke="#fff" stroke-linecap="round" stroke-linejoin="round" stroke-width="15"/>
      <path d="M819.5,301c73.4,0,133.2-59.9,133.2-133.3s-59.9-133.3-133.2-133.3-133.2,59.9-133.2,133.3,59.8,133.3,133.2,133.3Z" fill="none" stroke="#fff" stroke-linecap="round" stroke-linejoin="round" stroke-width="15"/>
      <path d="M827.7,755.8c31.1,0,56.2,25.2,56.2,56.3s-25.2,56.3-56.2,56.3-56.2-25.2-56.2-56.3,25.2-56.3,56.2-56.3Z" fill="none" stroke="#fff" stroke-linecap="round" stroke-linejoin="round" stroke-width="15"/>
      <path d="M741.8,934.3c0-34.7,20.9-64.9,50.7-78.4M863,855.9c29.8,13.5,50.6,43.7,50.6,78.4" fill="none" stroke="#fff" stroke-linecap="round" stroke-linejoin="round" stroke-width="15"/>
      <path d="M827.7,965.7c73.4,0,133.2-59.9,133.2-133.3s-59.8-133.3-133.2-133.3-133.2,59.9-133.2,133.3,59.9,133.3,133.2,133.3Z" fill="none" stroke="#fff" stroke-linecap="round" stroke-linejoin="round" stroke-width="15"/>
      <path d="M718,383.1c-1-1.8-2-3.6-3-5.3-43.3-73.7-123.4-123.2-215-123.2-137.6,0-249.1,111.6-249.1,249.3s111.5,249.3,249.1,249.3,249.1-111.6,249.1-249.3-2.5-40.5-7.2-59.6" fill="none" stroke="#fff" stroke-linecap="round" stroke-linejoin="round" stroke-width="15"/>
      <path d="M648,704.4v-17.7c0-58-46.5-66.9-86-77.7-13.9-3.8-17.6-21.7-20.5-27.5M458.5,581.5c-2.9,5.8-6.5,23.8-20.5,27.5-39.5,10.8-86,19.6-86,77.7v17.7" fill="none" stroke="#fff" stroke-linecap="round" stroke-linejoin="round" stroke-width="15"/>
      <path d="M605.9,454.1v32.4c0,38-35.7,85.8-79.4,102-19.2,7.2-33.9,7.2-53,0-43.7-16.2-79.4-63.9-79.4-102v-32.4" fill="none" stroke="#fff" stroke-linecap="round" stroke-linejoin="round" stroke-width="15"/>
      <path d="M419.8,614l65.8,38.6c11.2,7.3,17.5,7.3,28.7,0l65.8-38.6" fill="none" stroke="#fff" stroke-linecap="round" stroke-linejoin="round" stroke-width="15"/>
      <path d="M456.2,344.7c13.8-6.5,28.8-9.9,43.8-10.1,53,.9,105.9,40.8,105.9,119.5-42.9-3-36.5-35.8-66.1-28.2-22.9,5.9-31.3,8.9-39.8,8.9s-17-3-39.8-8.9c-29.6-7.6-23.2,25.1-66.1,28.2,0-28.5,6.9-51.9,18.3-70.2" fill="none" stroke="#fff" stroke-linecap="round" stroke-linejoin="round" stroke-width="15"/>
      <path d="M266.5,270.1l57.4,57.4" fill="none" stroke="#fff" stroke-linecap="round" stroke-linejoin="round" stroke-width="15"/>
      <path d="M676.2,327.5l57.4-58" fill="none" stroke="#fff" stroke-linecap="round" stroke-linejoin="round" stroke-width="15"/>
      <path d="M266.5,737.4l57.4-57.4" fill="none" stroke="#fff" stroke-linecap="round" stroke-linejoin="round" stroke-width="15"/>
      <path d="M676.2,680.1l57.4,58" fill="none" stroke="#fff" stroke-linecap="round" stroke-linejoin="round" stroke-width="15"/>
      <path d="M186.3,503.8h64.6" fill="none" stroke="#fff" stroke-linecap="round" stroke-linejoin="round" stroke-width="15"/>
      <path d="M813.7,503.8h-64.6" fill="none" stroke="#fff" stroke-linecap="round" stroke-linejoin="round" stroke-width="15"/>
      <path d="M500,817.7v-64.6" fill="none" stroke="#fff" stroke-linecap="round" stroke-linejoin="round" stroke-width="15"/>
      <path d="M500,189.9v64.6" fill="none" stroke="#fff" stroke-linecap="round" stroke-linejoin="round" stroke-width="15"/>
      <path d="M186.3,503.8c0-39.7-32.3-72-72-72s-72,32.2-72,72,32.3,72,72,72,72-32.2,72-72Z" fill="none" stroke="#fff" stroke-linecap="round" stroke-linejoin="round" stroke-width="15"/>
      <path d="M813.7,503.8c0-39.7,32.3-72,72-72s72,32.2,72,72-32.3,72-72,72-72-32.2-72-72Z" fill="none" stroke="#fff" stroke-linecap="round" stroke-linejoin="round" stroke-width="15"/>
      <path d="M500,817.7c39.7,0,72,32.2,72,72s-32.3,72-72,72-72-32.2-72-72,32.3-72,72-72Z" fill="none" stroke="#fff" stroke-linecap="round" stroke-linejoin="round" stroke-width="15"/>
      <path d="M500,189.9c39.7,0,72-32.2,72-72s-32.3-72-72-72-72,32.2-72,72,32.3,72,72,72Z" fill="none" stroke="#fff" stroke-linecap="round" stroke-linejoin="round" stroke-width="15"/>
      <path d="M172.3,755.1c31,0,56.2,25.2,56.2,56.3s-25.2,56.3-56.2,56.3-56.2-25.2-56.2-56.3,25.2-56.3,56.2-56.3Z" fill="none" stroke="#fff" stroke-linecap="round" stroke-linejoin="round" stroke-width="15"/>
      <path d="M86.3,933.6c0-34.7,20.8-64.8,50.6-78.4M207.5,855.2c29.8,13.5,50.7,43.6,50.7,78.4" fill="none" stroke="#fff" stroke-linecap="round" stroke-linejoin="round" stroke-width="15"/>
      <path d="M172.3,965c73.4,0,133.2-59.9,133.2-133.3s-59.9-133.3-133.2-133.3-133.2,59.9-133.2,133.3,59.8,133.3,133.2,133.3Z" fill="none" stroke="#fff" stroke-linecap="round" stroke-linejoin="round" stroke-width="15"/>
      <path d="M180.5,91.1c31.1,0,56.2,25.2,56.2,56.3s-25.2,56.3-56.2,56.3-56.2-25.2-56.2-56.3,25.2-56.3,56.2-56.3Z" fill="none" stroke="#fff" stroke-linecap="round" stroke-linejoin="round" stroke-width="15"/>
      <path d="M94.6,269.5c0-34.7,20.9-64.8,50.7-78.4M215.8,191.2c29.8,13.5,50.7,43.6,50.7,78.4" fill="none" stroke="#fff" stroke-linecap="round" stroke-linejoin="round" stroke-width="15"/>
      <path d="M180.5,301c73.4,0,133.2-59.9,133.2-133.3S253.9,34.3,180.5,34.3,47.3,94.2,47.3,167.7s59.9,133.3,133.2,133.3Z" fill="none" stroke="#fff" stroke-linecap="round" stroke-linejoin="round" stroke-width="15"/>
    </g>
  </g>
</svg>