<?xml version="1.0" encoding="UTF-8"?>
<svg id="Layer_1" xmlns="http://www.w3.org/2000/svg" version="1.1" viewBox="0 0 1000 1000">
  <!-- Generator: Adobe Illustrator 29.1.0, SVG Export Plug-In . SVG Version: 2.1.0 Build 142)  -->
  <defs>
    <style>
      .st0 {
        fill: #fff;
      }
    </style>
  </defs>
  <path class="st0" d="M559.8,638.2c-16.9-16.5-40.1-21.4-62.2-13.2l-61.5,22.8-49-99.4,85.8-74.2c9.7-8.4,14.8-20.1,14.3-32.9-.5-12.8-6.4-24.1-16.6-31.8l-136.7-102.1c-16.3-16.4-38.9-26.6-63.8-26.6s-63.1,18.6-78.5,46l-122.1,86.5c-10.4,7.4-16.1,18.4-16.2,31.2s5.7,23.8,16.1,31.2l121.5,86.5,105.1,187.9c15.7,28.2,45.9,45.1,78.1,43.9h103.3v141.4c0,27.3,22.2,49.5,49.5,49.5s49.5-22.2,49.5-49.5v-142.8l16.5,16c9.3,9.1,21.5,14,34.5,14h.6c13.3-.2,25.6-5.5,34.8-14.9s14.2-21.9,14-35.2c-.2-13.3-5.5-25.6-14.9-34.8l-102-99.6ZM270,460.8c31.7,0,59.6-16.5,75.7-41.3l34.3,25.6-34.5,29.9h-134.4l-42.6-30.4,29.1-20.6c16.4,22.3,42.8,36.8,72.6,36.8h0ZM270,304.9c36.3,0,65.9,29.6,65.9,65.9s-29.6,65.9-65.9,65.9-65.9-29.6-65.9-65.9,29.6-65.9,65.9-65.9ZM552.1,935.3c0,14-11.4,25.3-25.3,25.3s-25.3-11.4-25.3-25.3v-153.5c0-6.7-5.4-12.1-12.1-12.1h-50.5l75.1-38,38.1,37.2v166.3h0ZM645.4,790.8c-4.7,4.8-11,7.5-17.8,7.6-6.8.1-13.2-2.5-18-7.2l-84.9-82.8c-3.7-3.6-9.3-4.5-13.9-2.1l-112.4,56.8c-7.9,4-16.5,6.2-25.3,6.6h-.4c-23,.8-44.5-11.4-55.7-31.5l-106.4-190.3c-.9-1.6-2.1-2.9-3.5-3.9l-123.7-88.1c-3.9-2.8-5.9-6.7-5.9-11.5s2-8.7,6-11.5l96.9-68.6c-.2,2.1-.2,4.3-.3,6.4,0,11.2,2.1,21.9,5.8,31.8l-45.3,32.1c-3.2,2.3-5.1,5.9-5.1,9.8s1.9,7.6,5.1,9.9l59.6,42.5c2.1,1.4,4.5,2.2,7,2.2h142.8c2.9,0,5.7-1,7.9-2.9l49.2-42.6c2.8-2.4,4.3-5.9,4.2-9.6s-1.9-7-4.8-9.2l-50.3-37.6c4.1-13.3,5-27.3,2.7-41l97.2,72.6c4.5,3.4,6.8,7.7,7,13.3.2,5.6-1.8,10.1-6,13.8l-92.8,80.3c-4.1,3.6-5.3,9.5-2.9,14.5l58,117.5c2.7,5.6,9.2,8.1,15,6l71.8-26.6c13.1-4.9,27-1.9,37,7.8l102,99.5c4.8,4.7,7.5,11,7.6,17.8,0,6.8-2.5,13.2-7.2,18h0ZM446.8,838.7v134.1c0,6.7-5.4,12.1-12.1,12.1s-12.1-5.4-12.1-12.1v-122h-156.7v122c0,6.7-5.4,12.1-12.1,12.1s-12.1-5.4-12.1-12.1v-132.5l-61.6-229.8c-1.7-6.4,2.1-13.1,8.5-14.8,6.4-1.7,13.1,2.1,14.8,8.5l59.6,222.4h171.6c6.7,0,12.1,5.4,12.1,12.1h0ZM597.8,15.2c-63.3,0-114.7,51.5-114.7,114.7s51.5,114.7,114.7,114.7,114.7-51.5,114.7-114.7-51.5-114.7-114.7-114.7ZM597.8,220.5c-50,0-90.6-40.6-90.6-90.6s40.6-90.6,90.6-90.6,90.6,40.6,90.6,90.6-40.7,90.6-90.6,90.6ZM585.7,108.7c0,2.5,5.5,5.1,13.4,8.5l3.7,1.6c1.2.5,2.3,1,3.5,1.5,11.7,5.2,27.8,12.2,27.8,30.6s-10.1,26.7-24.1,31.3v11.5c0,6.7-5.4,12.1-12.1,12.1s-12.1-5.4-12.1-12.1v-11.5c-14-4.6-24.1-16.9-24.1-31.3s5.4-12.1,12.1-12.1,12.1,5.4,12.1,12.1,5.5,9.1,12.1,9.1,12.1-4.2,12.1-9.1-5.5-5.1-13.4-8.5l-3.7-1.6c-1.2-.5-2.3-1-3.5-1.5-11.7-5.2-27.8-12.2-27.8-30.6s10.1-26.7,24.1-31.3v-11.5c0-6.7,5.4-12.1,12.1-12.1s12.1,5.4,12.1,12.1v11.5c14,4.6,24.1,16.9,24.1,31.3s-5.4,12.1-12.1,12.1-12.1-5.4-12.1-12.1-5.5-9.1-12.1-9.1-12.1,4.2-12.1,9.1ZM564.7,339.3v-21.8c0-6.7,5.4-12.1,12.1-12.1s12.1,5.4,12.1,12.1v21.8c0,6.7-5.4,12.1-12.1,12.1s-12.1-5.4-12.1-12.1ZM564.7,377.8c0-6.7,5.4-12.1,12.1-12.1s12.1,5.4,12.1,12.1v55.2c0,6.7-5.4,12.1-12.1,12.1s-12.1-5.4-12.1-12.1v-55.2ZM606.7,382c0-6.7,5.4-12.1,12.1-12.1s12.1,5.4,12.1,12.1v21.8c0,6.7-5.4,12.1-12.1,12.1s-12.1-5.4-12.1-12.1v-21.8ZM606.7,343.4v-55.2c0-6.7,5.4-12.1,12.1-12.1s12.1,5.4,12.1,12.1v55.2c0,6.7-5.4,12.1-12.1,12.1s-12.1-5.4-12.1-12.1ZM832,278.3c-63.3,0-114.7,51.5-114.7,114.7s51.5,114.7,114.7,114.7,114.7-51.5,114.7-114.7-51.5-114.7-114.7-114.7h0ZM832,483.7c-50,0-90.6-40.6-90.6-90.6s40.6-90.6,90.6-90.6,90.6,40.6,90.6,90.6-40.6,90.6-90.6,90.6ZM820,371.9c0,2.5,5.5,5.1,13.4,8.5l3.7,1.6c1.2.5,2.3,1,3.5,1.5,11.7,5.2,27.8,12.2,27.8,30.6s-10.1,26.7-24.1,31.3v11.5c0,6.7-5.4,12.1-12.1,12.1s-12.1-5.4-12.1-12.1v-11.5c-14-4.6-24.1-16.9-24.1-31.3s5.4-12.1,12.1-12.1,12.1,5.4,12.1,12.1,5.5,9.1,12.1,9.1,12.1-4.2,12.1-9.1-5.5-5.1-13.4-8.5l-3.7-1.6c-1.2-.5-2.3-1-3.5-1.5-11.7-5.2-27.8-12.2-27.8-30.6s10.1-26.7,24.1-31.3v-11.5c0-6.7,5.4-12.1,12.1-12.1s12.1,5.4,12.1,12.1v11.5c14,4.6,24.1,16.9,24.1,31.3s-5.4,12.1-12.1,12.1-12.1-5.4-12.1-12.1-5.5-9.1-12.1-9.1-12.1,4.2-12.1,9.1ZM865.1,580.6v21.8c0,6.7-5.4,12.1-12.1,12.1s-12.1-5.4-12.1-12.1v-21.8c0-6.7,5.4-12.1,12.1-12.1s12.1,5.4,12.1,12.1ZM865.1,641v55.2c0,6.7-5.4,12.1-12.1,12.1s-12.1-5.4-12.1-12.1v-55.2c0-6.7,5.4-12.1,12.1-12.1s12.1,5.4,12.1,12.1ZM823.1,645.2v21.8c0,6.7-5.4,12.1-12.1,12.1s-12.1-5.4-12.1-12.1v-21.8c0-6.7,5.4-12.1,12.1-12.1s12.1,5.4,12.1,12.1ZM823.1,551.4v55.2c0,6.7-5.4,12.1-12.1,12.1s-12.1-5.4-12.1-12.1v-55.2c0-6.7,5.4-12.1,12.1-12.1s12.1,5.4,12.1,12.1h0Z"/>
</svg>