<?xml version="1.0" encoding="UTF-8"?>
<svg id="Layer_1" xmlns="http://www.w3.org/2000/svg" version="1.1" viewBox="0 0 1000 1000">
  <!-- Generator: Adobe Illustrator 29.1.0, SVG Export Plug-In . SVG Version: 2.1.0 Build 142)  -->
  <path d="M500,225.4c34.8,0,63.2-28.3,63.2-63.2s-28.3-63.2-63.2-63.2-63.2,28.3-63.2,63.2,28.3,63.2,63.2,63.2ZM500,130.6c17.4,0,31.6,14.2,31.6,31.6s-14.2,31.6-31.6,31.6-31.6-14.2-31.6-31.6,14.2-31.6,31.6-31.6Z" fill="#fff"/>
  <path d="M768.5,794h63.2v-126.4h-31.6v-94.8h-94.8v-24.6c18.8-11,31.6-31.1,31.6-54.4s-1.5-14.2-3.8-20.8l148.8-108.2c11.4,11.4,27.2,18.4,44.5,18.4,34.8,0,63.2-28.3,63.2-63.2s-28.3-63.2-63.2-63.2-63.2,28.3-63.2,63.2,1.1,11.8,2.7,17.3l-150.5,109.4c-3.1-2.8-6.6-5.3-10.2-7.4v-198.3h112.9L500,16.5,181.7,241.2h112.9v103.6c-18.8,11-31.6,31.1-31.6,54.4s3.3,22,8.6,31.2l-165.6,151.8c-9.5-5.8-20.6-9.3-32.5-9.3-34.8,0-63.2,28.3-63.2,63.2s28.3,63.2,63.2,63.2,63.2-28.3,63.2-63.2-3.3-22-8.6-31.2l165.6-151.8c.3.2.6.3.9.5v119.4h-31.6v126.4h31.6v63.2h-63.2v94.8H10.4v126.4h979.3v-126.4h-221.1v-63.2ZM926.5,288.5c17.4,0,31.6,14.2,31.6,31.6s-14.2,31.6-31.6,31.6-31.6-14.2-31.6-31.6,14.2-31.6,31.6-31.6ZM73.5,667.6c-17.4,0-31.6-14.2-31.6-31.6s14.2-31.6,31.6-31.6,31.6,14.2,31.6,31.6-14.2,31.6-31.6,31.6ZM800.1,762.4h-473.8v-63.2h31.6v31.6h31.6v-31.6h31.6v31.6h31.6v-31.6h31.6v31.6h31.6v-31.6h31.6v31.6h31.6v-31.6h31.6v31.6h31.6v-31.6h31.6v31.6h31.6v-31.6h31.6v31.6h31.6v-31.6h31.6v63.2ZM673.7,525.5c-17.4,0-31.6-14.2-31.6-31.6s14.2-31.6,31.6-31.6,31.6,14.2,31.6,31.6-14.2,31.6-31.6,31.6ZM515.8,478.1v-11.4l95.1,23.8c0,1.2-.3,2.2-.3,3.4,0,34.8,28.3,63.2,63.2,63.2v15.8h-347.5v-110.6c22.5,0,42.1-11.9,53.3-29.6l104.6,26.2v19.3h31.6ZM281.2,209.6L500,55.2l218.8,154.4h-45v221.1c-22.5,0-42.1,11.9-53.3,29.6l-231.3-57.8c0-1.2.3-2.2.3-3.4,0-34.8-28.3-63.2-63.2-63.2v-126.4h-45ZM326.3,367.5c17.4,0,31.6,14.2,31.6,31.6s-14.2,31.6-31.6,31.6-31.6-14.2-31.6-31.6,14.2-31.6,31.6-31.6ZM294.7,604.4h31.6v31.6h31.6v-31.6h31.6v31.6h31.6v-31.6h31.6v31.6h31.6v-31.6h31.6v31.6h31.6v-31.6h31.6v31.6h31.6v-31.6h31.6v31.6h31.6v-31.6h31.6v31.6h31.6v-31.6h31.6v63.2h-473.8v-63.2ZM452.6,951.9H41.9v-63.2h31.6v31.6h31.6v-31.6h31.6v31.6h31.6v-31.6h31.6v31.6h31.6v-31.6h31.6v31.6h31.6v-31.6h31.6v31.6h31.6v-31.6h31.6v31.6h31.6v-31.6h31.6v63.2ZM452.6,857.2h-189.5v-63.2h31.6v31.6h31.6v-31.6h31.6v31.6h31.6v-31.6h31.6v31.6h31.6v-31.6h31.6v31.6h31.6v-31.6h31.6v31.6h31.6v-31.6h31.6v31.6h31.6v-31.6h31.6v31.6h31.6v-31.6h31.6v63.2h-284.3ZM800.1,920.3v-31.6h31.6v31.6h31.6v-31.6h31.6v31.6h31.6v-31.6h31.6v63.2h-473.8v-63.2h31.6v31.6h31.6v-31.6h31.6v31.6h31.6v-31.6h31.6v31.6h31.6v-31.6h31.6v31.6h31.6v-31.6h31.6v31.6h31.6Z" fill="#fff"/>
  <path d="M484.2,256.9h31.6v31.6h-31.6v-31.6ZM484.2,320.1h31.6v31.6h-31.6v-31.6ZM484.2,383.3h31.6v31.6h-31.6v-31.6ZM484.2,509.7h31.6v31.6h-31.6v-31.6Z" fill="#fff"/>
</svg>