<?xml version="1.0" encoding="UTF-8"?>
<svg id="Layer_1" xmlns="http://www.w3.org/2000/svg" version="1.1" viewBox="0 0 4234.9 4235">
  <!-- Generator: Adobe Illustrator 29.1.0, SVG Export Plug-In . SVG Version: 2.1.0 Build 142)  -->
  <defs>
    <style>
      .st0 {
        fill: #0a4362;
      }
    </style>
  </defs>
  <path class="st0" d="M784.7,2081.5c0-13.5-4.8-24-14.6-33.1-90.9-84.7-181.7-169.5-272.5-254.4-16.8-15.8-37.9-15.9-54.6-.3-37.5,35.2-75.1,70.4-112.7,105.5-53.8,50.2-107.5,100.5-161.4,150.6-8.7,8-13.2,17.7-13.2,29.5,0,111.6,0,223.2,0,334.8,0,22,16,37.6,37.9,37.6h551.4c24.2,0,39.3-15.1,39.3-39,0-110.4,0-220.8,0-331.2h0ZM661.8,2192.8c-42.6,42.5-93.4,68.7-153.2,77.3-13.2,1.9-26.4,2.7-39.8,2.8-70-1.2-130.9-25.2-182.1-73.1-3.8-3.5-10.3-6.8-10.2-11.2,0-3.8,6.2-7.4,9.8-11,11.8-11.8,23.6-23.4,35.2-35.4,3.5-3.6,5.2-3.9,8.9,0,28.5,29,62.7,48.1,102.7,55.1,67.3,11.9,126-5.8,175.5-53.2.8-.7,1.5-1.3,2.1-2.1,2.5-3.6,4.6-3.6,7.9-.2,14.2,14.6,28.6,29,43.2,43.2,3.2,3.1,2.9,4.7,0,7.7h0Z"/>
  <g id="Host">
    <g id="host">
      <path class="st0" d="M1118.2,2091.5c18.2-8.7,35.9-16.3,54.5-21.8,34.2-10.4,69.1-14.1,104.3-7.2,48.9,9.5,78.5,40.2,93,86.7,5.4,17.3,7.6,35.2,7.6,53.2,0,80.8,0,161.7.2,242.5,0,4.3-.7,6-5.6,5.9-43.9-.2-87.8-.2-131.7,0-5.1,0-5.6-1.8-5.6-6v-223.2c0-74.4,0-10.2-1-15.2-4-22.3-18.7-33.8-41.6-32.1-25.1,1.9-48.3,10.9-71.3,20.1-3.7,1.5-2.8,4.1-2.8,6.8v243.8c0,4.7-1.2,5.7-5.8,5.7-43.9-.2-87.8-.2-131.7,0-4.6,0-5.7-1.1-5.7-5.7v-531.5c0-5.3,1.5-6.4,6.5-6.7,43.7-2.4,87.5-5.1,131.2-8,4.8-.3,5.5,1.1,5.5,5.4v187.2h.2Z"/>
      <path class="st0" d="M1649.8,2050c44.1-.2,83.5,6.9,120,26.2,53.6,28.6,83.9,74.2,94,133.4,6.4,37.8,5.9,75.6-6.5,112.4-19.1,56.5-58.5,93-113.8,113.3-38.7,14.2-78.8,17.7-119.7,14.7-32.1-2.4-62.9-9.7-91.5-24.7-51.7-27.3-81.9-70.1-91.4-127.4-6.7-40.1-6.3-80,7.6-118.6,20.9-58.1,62.1-95.9,120-116,27.4-9.6,55.7-13.7,81.5-13.3h0ZM1720.4,2252.3c-.7-6.1-1.1-14.3-2.4-22.4-3.1-18.5-10.3-35.1-23.6-48.7-22.8-23.3-78.2-22.8-98.9,18.2-13,25.6-13.5,52.6-8.3,80.1,2.9,15.7,9.5,29.8,21.5,40.8,15.9,14.6,35.4,16.7,55.6,13.9,26.7-3.8,43.8-19.1,51.6-44.9,3.3-11.5,4-23.1,4.6-37h0Z"/>
      <path class="st0" d="M2317.7,2253.5c0-18.8-.3-37.6.2-56.4,0-5.5-1.7-6.3-6.5-6.2-15.9.3-31.7,0-47.6.2-3.9,0-4.9-.9-4.9-4.9.2-34.2.2-68.5,0-102.7,0-3.8.9-5,4.8-4.9,16.3.2,32.6,0,48.8.2,4.6,0,5.4-1.4,5.4-5.6-.2-30.4,0-60.7-.3-91.1,0-4.9,1.5-6.1,5.9-6.7,35.7-4.7,71.4-9.6,107.1-14.5,7.7-1,15.5-2.1,23.2-3.4,4.7-.8,6.7-.2,6.6,5.6-.3,36.4,0,72.8-.3,109.2,0,5.2,1.1,6.5,6.4,6.5,29.4-.3,58.8,0,88.2-.2,4,0,5.2.9,5.6,5,4,34.3,8.1,68.8,12.4,103.1.6,4.8-1.9,4.4-5,4.4-33.7,0-67.5,0-101.1,0-4.9,0-6.7.8-6.6,6.3.3,28.6,0,57.2.2,85.7,0,12.7,2,24.9,9.9,35.6,8.6,11.6,20.4,16.6,34.6,16.7,17.8,0,34.5-4.2,50.1-12.5,3.7-1.9,5.2-2.2,7,2.3,12.1,29.4,24.5,58.7,37,88,1.7,4,.5,5.9-2.6,8-16.7,11.3-35.4,18.5-54.8,23.3-61.3,15.1-118.8,5.6-170-31.8-36.3-26.5-53.2-64.2-53.6-108.9-.2-16.9,0-33.6,0-50.1h0Z"/>
      <path class="st0" d="M2082.6,2049.8c39,.9,77.1,5.7,113.3,21.5,10.1,4.4,19.4,10.3,28.3,16.6,2.5,1.8,3,3.3,1.7,6.2-12.3,27.5-24.6,54.9-36.6,82.4-1.7,3.8-3.2,3.7-6.4,2.4-23.5-9.8-47.8-17.3-73.2-20-13.3-1.4-26.6-1.8-39.6,2.4-2.3.7-4.4,1.6-6.5,2.6-10.6,5.6-11,13.3-.9,19.8,12.9,8.4,27.6,12.8,41.9,18.1,31.3,11.6,61.2,26.1,87.4,47,26.4,21.2,37.7,48.9,36,82.5-1.1,23.2-6.4,45.3-19.8,64.7-17.8,25.9-43.3,40.2-73,47.7-40.2,10.2-80.6,9.1-121.2,1.9-27.4-4.9-54.5-10.6-79.8-22.8-8.1-4-15.8-8.6-23.2-13.7-2.4-1.7-3.2-3.2-1.8-6.2,12.4-27.6,24.7-55.3,36.8-83,1.2-2.7,2.3-3.3,5.2-2.1,29,12.9,59.5,20.5,90.9,24.3,10.2,1.2,20.3,1.6,30.3-1.3,1.5-.5,3-.8,4.4-1.5,5.5-2.4,10.9-5.4,11.5-12,.5-6.3-5.1-8.8-9.3-11.7-7.6-5.2-16.2-8.7-24.8-11.8-35.6-12.5-69.6-27.9-100-50.7-29.9-22.5-41.6-52.8-38-89.5,5.2-53.2,37-84.2,85-101.4,26.3-9.5,53.7-12.3,81.6-12.3h0Z"/>
    </g>
  </g>
  <g id="Wise">
    <g id="wise">
      <path class="st0" d="M2778,2315.1c21.3-79.9,42.1-158.3,62.8-236.9,1.4-5.4,3.5-6.9,8.9-6.8,27.7.3,55.2.3,82.9,0,4.5,0,6.2,1.2,7.4,5.6,21.4,77.3,42.9,154.6,64.4,231.9.5,1.7,1,3.4,1.9,6.2,3.9-14.4,7.4-27.8,11-41,17.3-65.3,34.7-130.6,51.8-196,1.4-5.3,3.5-7,9-6.9,26.2.4,52.5.3,78.7,0,4.7,0,6,.7,4.4,5.6-39,122.8-77.7,245.7-116.4,368.5-1.3,4.1-3.1,5.3-7.2,5.3-21.9-.2-43.9-.3-65.9,0-4.6,0-6.2-1.5-7.5-5.7-24.3-79.3-48.6-158.5-73.1-237.8-.6-2-.7-4.3-2.7-6.1-9.1,31.2-18.3,62.3-27.4,93.2-14.7,50.2-29.3,100.5-43.8,150.7-1.2,4-2.7,5.8-7.4,5.7-22.5-.3-45.1-.3-67.6,0-3.7,0-5-1.2-6-4.4-37.1-118.6-74.2-237.3-111.5-355.9-1.1-3.6-.8-5.2,3.4-6.4,25.6-7.9,51-16.1,76.4-24.6,4-1.3,4.9,0,5.7,3.3,21.9,82.2,43.8,164.4,65.8,246.5.6,1.3,1,2.7,1.9,5.6h0Z"/>
      <path class="st0" d="M3947.8,2276h-125.2c-4.9,0-6.4,1-5.6,6.1,6.4,39.9,24.2,71.2,63.9,86.3,19.7,7.5,40.3,9,61.2,9,36.9,0,69.2-14.7,101-30.8,4.9-2.5,6.8-2.4,8.9,3.2,7.1,18,14.6,35.8,22.1,53.5,1.4,3.3,1.4,5.3-2,7.5-42.9,28.3-89.9,42-141.4,41.1-29.5-.5-58.6-3.8-86.6-13.5-59.9-20.9-97.9-62.5-113.1-123.7-13-52.5-11.2-105,9.9-155.3,25.7-61.2,72.8-95.6,138.6-104.3,31-4.1,61.8-2.5,91.6,7.4,38.8,13,65.2,39.8,83.5,75.5,16.7,32.5,23.2,67.4,24.3,103.5.3,9.8-.2,19.6.2,29.4.2,4.6-1.3,5.5-5.6,5.5-41.7-.3-83.6-.2-125.6-.2h0ZM3906,2217c27.6,0,55.2,0,82.8,0,4.7,0,5.6-1.2,4.6-5.6-2.5-11.3-5.4-22.4-10-33-13.5-30.6-36.2-48.3-70.2-50.1-28.3-1.5-53.1,6.1-71.7,28.6-13.5,16.3-19.8,35.7-23.2,56.2-.8,4.1,1.7,3.8,4.3,3.8h83.4Z"/>
      <path class="st0" d="M3520.4,2452.9c-41-1.5-80.6-9-117.5-28.1-14.8-7.6-14.6-7.9-8.1-23,6.2-14.3,12.6-28.6,18.6-43,1.4-3.4,2.6-4,6.2-2.4,26.1,12.1,53.1,20.9,81.9,23.3,23.3,1.9,46.2.2,67.4-11.3,14.8-8,21.2-19.7,18.8-33.9-1.5-9.1-6.7-16.2-13.4-22.2-14.5-13.2-32.1-20.9-50.2-27.2-24.4-8.5-48.8-16.6-71.4-29.4-15.6-8.8-29.9-19.2-42.1-32.5-35.5-38.4-25.2-97.7,2.1-127.2,21.2-22.9,48-34.6,78-39.8,57-9.8,110.5,1.6,160.9,28.8,8.6,4.6,8.4,4.9,4.2,13.8-7.2,15.6-14.5,31.1-21.5,46.9-1.5,3.4-2.8,4-6.4,2.4-22.7-10.2-45.8-19.3-70.7-22.4-17.3-2.2-34.7-3.6-51.7,2.7-10.7,4-20,9.9-26.1,19.9-7.5,12.3-5.7,24.1,5.3,33.6,12,10.3,26.5,16.4,41.2,21.9,23.7,9,47.8,17.2,70.2,29.4,18.4,10.1,35.5,22,50.2,37.3,44.1,45.3,32.5,128.7-27.2,160.1-21.1,11.1-43.6,17.1-67.1,19.7-10.5,1.3-21.1,1.7-31.8,2.4h0Z"/>
      <path class="st0" d="M3312.4,2261c0,61.2,0,122.5,0,183.7,0,4.8-1,6.2-6,6.1-25.9-.3-51.7-.2-77.5,0-4,0-5.3-.9-5.3-5.1,0-122.9,0-245.7,0-368.6,0-4.9,1.7-5.6,6-5.6,25.7.2,51.3.2,77,0,4.6,0,5.8,1.2,5.8,5.8-.2,61.2,0,122.4,0,183.7Z"/>
      <path class="st0" d="M3216,1958.6c0-29.1,22.2-51.8,50.7-51.9,29.4,0,52.7,22.7,52.8,51.5,0,29.9-22.8,52.8-52.7,52.8s-50.8-22.4-50.8-52.3Z"/>
    </g>
  </g>
</svg>