<?xml version="1.0" encoding="UTF-8"?>
<svg id="Layer_1" data-name="Layer 1" xmlns="http://www.w3.org/2000/svg" version="1.1" viewBox="0 0 4234.9 911.4">
  <defs>
    <style>
      .cls-1 {
        fill: #0a4362;
        stroke-width: 0px;
      }
    </style>
  </defs>
  <path class="cls-1" d="M694.5,363.7c0-14.4-5.1-25.5-15.5-35.2-96.6-90-193.1-180.2-289.6-270.4-17.9-16.8-40.3-16.9-58-.3-39.9,37.4-79.8,74.8-119.8,112.1-57.2,53.4-114.3,106.8-171.5,160.1-9.2,8.5-14,18.8-14,31.4.1,118.6,0,237.2.1,355.8,0,23.4,17,40,40.3,40h293.7c97.4,0,194.9,0,292.4,0,25.7,0,41.8-16,41.8-41.5,0-117.3-.1-234.7,0-352ZM563.8,482c-45.3,45.2-99.3,73-162.8,82.2-14,2-28.1,2.9-42.3,3-74.4-1.3-139.1-26.8-193.5-77.7-4-3.7-11-7.2-10.8-11.9,0-4,6.6-7.9,10.4-11.7,12.5-12.5,25.1-24.9,37.4-37.6,3.7-3.8,5.5-4.1,9.5,0,30.3,30.8,66.6,51.1,109.2,58.6,71.5,12.6,133.9-6.2,186.5-56.5.8-.7,1.6-1.4,2.2-2.2,2.7-3.8,4.9-3.8,8.4-.2,15.1,15.5,30.4,30.8,45.9,45.9,3.4,3.3,3.1,5,0,8.2Z"/>
  <g id="Host">
    <g id="host">
      <path class="cls-1" d="M1048.9,374.3c19.3-9.3,38.2-17.3,57.9-23.2,36.4-11.1,73.4-15,110.9-7.6,52,10.1,83.4,42.7,98.8,92.2,5.7,18.4,8.1,37.4,8.1,56.5,0,85.9,0,171.9.2,257.8,0,4.6-.7,6.4-6,6.3-46.7-.2-93.3-.2-140,0-5.4,0-5.9-1.9-5.9-6.4,0-79.1,0-158.1,0-237.2s0-10.8-1.1-16.2c-4.3-23.7-19.9-35.9-44.2-34.1-26.7,2-51.3,11.6-75.8,21.4-3.9,1.6-3,4.4-3,7.2v153.6c0,35.2,0,70.3,0,105.5,0,5-1.3,6.1-6.2,6.1-46.7-.2-93.3-.2-140,0-4.9,0-6.1-1.2-6.1-6.1,0-188.3,0-376.6,0-564.9,0-5.6,1.6-6.8,6.9-7.1,46.5-2.6,93-5.4,139.5-8.5,5.1-.3,5.8,1.2,5.8,5.7,0,63.7,0,127.3,0,191,0,2.4,0,4.7,0,8Z"/>
      <path class="cls-1" d="M1614,330.2c46.9-.2,88.8,7.3,127.5,27.9,57,30.4,89.2,78.9,99.9,141.8,6.8,40.2,6.3,80.4-6.9,119.5-20.3,60-62.2,98.9-121,120.4-41.1,15.1-83.8,18.8-127.2,15.6-34.1-2.5-66.9-10.3-97.3-26.3-54.9-29-87.1-74.5-97.2-135.4-7.1-42.6-6.7-85,8.1-126.1,22.2-61.7,66-101.9,127.5-123.3,29.1-10.2,59.2-14.6,86.6-14.1ZM1689,545.3c-.7-6.5-1.2-15.2-2.6-23.8-3.3-19.7-10.9-37.3-25.1-51.8-24.2-24.8-83.1-24.2-105.1,19.3-13.8,27.2-14.3,55.9-8.8,85.1,3.1,16.7,10.1,31.7,22.8,43.4,16.9,15.5,37.6,17.8,59.1,14.8,28.4-4,46.6-20.3,54.8-47.7,3.5-12.2,4.2-24.6,4.9-39.3Z"/>
      <path class="cls-1" d="M2323.9,546.5c0-20-.3-40,.2-59.9.1-5.8-1.8-6.7-6.9-6.6-16.9.3-33.7,0-50.6.2-4.1.1-5.2-1-5.2-5.2.2-36.4.2-72.8,0-109.2,0-4,1-5.3,5.1-5.2,17.3.2,34.6-.1,51.9.2,4.9.1,5.7-1.5,5.7-5.9-.2-32.3.1-64.5-.3-96.8-.1-5.2,1.6-6.5,6.3-7.1,37.9-5,75.9-10.2,113.8-15.4,8.2-1.1,16.5-2.2,24.7-3.6,5-.8,7.1-.2,7,5.9-.3,38.7-.1,77.4-.3,116.1,0,5.5,1.2,6.9,6.8,6.9,31.2-.3,62.5-.1,93.7-.2,4.2,0,5.5,1,6,5.3,4.2,36.5,8.6,73.1,13.2,109.6.6,5.1-2,4.7-5.3,4.7-35.8,0-71.7.1-107.5-.1-5.2,0-7.1.9-7,6.7.3,30.4.1,60.8.2,91.1.1,13.5,2.1,26.5,10.5,37.8,9.1,12.3,21.7,17.6,36.8,17.7,18.9,0,36.7-4.5,53.3-13.3,3.9-2,5.5-2.3,7.4,2.4,12.9,31.3,26,62.4,39.3,93.5,1.8,4.3.5,6.3-2.8,8.5-17.8,12-37.6,19.7-58.2,24.8-65.2,16.1-126.3,6-180.7-33.8-38.6-28.2-56.5-68.2-57-115.8-.2-18,0-35.7,0-53.3Z"/>
      <path class="cls-1" d="M2074,330c41.4,1,82,6.1,120.4,22.9,10.7,4.7,20.6,10.9,30.1,17.6,2.7,1.9,3.2,3.5,1.8,6.6-13.1,29.2-26.1,58.3-38.9,87.6-1.8,4-3.4,3.9-6.8,2.5-25-10.4-50.8-18.4-77.8-21.3-14.1-1.5-28.3-1.9-42.1,2.5-2.4.7-4.7,1.7-6.9,2.8-11.3,6-11.7,14.1-1,21,13.7,8.9,29.3,13.6,44.5,19.2,33.3,12.3,65,27.7,92.9,50,28.1,22.5,40.1,52,38.3,87.7-1.2,24.7-6.8,48.1-21,68.8-18.9,27.5-46,42.7-77.6,50.7-42.7,10.8-85.7,9.7-128.8,2-29.1-5.2-57.9-11.3-84.8-24.2-8.6-4.2-16.8-9.1-24.7-14.6-2.6-1.8-3.4-3.4-1.9-6.6,13.2-29.3,26.2-58.8,39.1-88.2,1.3-2.9,2.4-3.5,5.5-2.2,30.8,13.7,63.2,21.8,96.6,25.8,10.8,1.3,21.6,1.7,32.2-1.4,1.6-.5,3.2-.9,4.7-1.6,5.8-2.6,11.6-5.7,12.2-12.8.5-6.7-5.4-9.4-9.9-12.4-8.1-5.5-17.2-9.2-26.4-12.5-37.8-13.3-74-29.7-106.3-53.9-31.8-23.9-44.2-56.1-40.4-95.1,5.5-56.5,39.3-89.5,90.3-107.8,28-10.1,57.1-13.1,86.7-13.1Z"/>
    </g>
  </g>
  <g id="Wise">
    <g id="wise">
      <path class="cls-1" d="M2813.1,612c22.6-84.9,44.8-168.3,66.7-251.8,1.5-5.7,3.7-7.3,9.5-7.2,29.4.3,58.7.3,88.1,0,4.8,0,6.6,1.3,7.9,6,22.7,82.2,45.6,164.3,68.5,246.5.5,1.8,1.1,3.6,2,6.6,4.1-15.3,7.9-29.5,11.7-43.6,18.4-69.4,36.9-138.8,55.1-208.3,1.5-5.6,3.7-7.4,9.6-7.3,27.9.4,55.8.3,83.7.1,5,0,6.4.7,4.7,6-41.4,130.5-82.6,261.1-123.7,391.7-1.4,4.4-3.3,5.6-7.7,5.6-23.3-.2-46.7-.3-70,0-4.9,0-6.6-1.6-8-6.1-25.8-84.3-51.7-168.5-77.7-252.7-.6-2.1-.7-4.6-2.9-6.5-9.7,33.2-19.4,66.2-29.1,99.1-15.6,53.4-31.1,106.8-46.6,160.2-1.3,4.3-2.9,6.2-7.9,6.1-23.9-.3-47.9-.3-71.8,0-3.9,0-5.3-1.3-6.4-4.7-39.4-126.1-78.9-252.2-118.5-378.3-1.2-3.8-.8-5.5,3.6-6.8,27.2-8.4,54.2-17.1,81.2-26.1,4.3-1.4,5.2-.1,6.1,3.5,23.3,87.4,46.6,174.7,69.9,262,.6,1.4,1.1,2.9,2,6Z"/>
      <path class="cls-1" d="M4056.4,570.4c-44.4,0-88.7,0-133.1,0-5.2,0-6.8,1.1-6,6.5,6.8,42.4,25.7,75.7,67.9,91.7,20.9,8,42.8,9.6,65,9.6,39.2,0,73.6-15.6,107.4-32.7,5.2-2.7,7.2-2.5,9.5,3.4,7.5,19.1,15.5,38,23.5,56.9,1.5,3.5,1.5,5.6-2.1,8-45.6,30.1-95.6,44.6-150.3,43.7-31.4-.5-62.3-4-92-14.4-63.7-22.2-104.1-66.4-120.2-131.5-13.8-55.8-11.9-111.6,10.5-165.1,27.3-65.1,77.4-101.6,147.3-110.9,33-4.4,65.7-2.7,97.4,7.9,41.2,13.8,69.3,42.3,88.7,80.2,17.7,34.5,24.7,71.6,25.8,110,.3,10.4-.2,20.8.2,31.2.2,4.9-1.4,5.8-6,5.8-44.3-.3-88.9-.2-133.5-.2ZM4012,507.7c29.3,0,58.7-.1,88,.1,5,0,5.9-1.3,4.9-5.9-2.7-12-5.7-23.8-10.6-35.1-14.3-32.5-38.5-51.3-74.6-53.3-30.1-1.6-56.4,6.5-76.2,30.4-14.4,17.3-21,37.9-24.7,59.7-.8,4.4,1.8,4,4.6,4,29.5,0,59,0,88.6,0Z"/>
      <path class="cls-1" d="M3602.2,758.5c-43.6-1.6-85.7-9.6-124.9-29.9-15.7-8.1-15.5-8.4-8.6-24.4,6.6-15.2,13.4-30.4,19.8-45.7,1.5-3.6,2.8-4.3,6.6-2.6,27.7,12.9,56.4,22.2,87.1,24.8,24.8,2,49.1.2,71.6-12,15.7-8.5,22.5-20.9,20-36-1.6-9.7-7.1-17.2-14.2-23.6-15.4-14-34.1-22.2-53.4-28.9-25.9-9-51.9-17.6-75.9-31.2-16.6-9.4-31.8-20.4-44.8-34.5-37.7-40.8-26.8-103.8,2.2-135.2,22.5-24.3,51-36.8,82.9-42.3,60.6-10.4,117.4,1.7,171,30.6,9.1,4.9,8.9,5.2,4.5,14.7-7.6,16.6-15.4,33.1-22.8,49.8-1.6,3.6-3,4.3-6.8,2.6-24.1-10.8-48.7-20.5-75.1-23.8-18.4-2.3-36.9-3.8-54.9,2.9-11.4,4.2-21.3,10.5-27.7,21.1-8,13.1-6.1,25.6,5.6,35.7,12.8,11,28.2,17.4,43.8,23.3,25.2,9.6,50.8,18.3,74.6,31.3,19.6,10.7,37.7,23.4,53.4,39.6,46.9,48.2,34.5,136.8-28.9,170.2-22.4,11.8-46.3,18.2-71.3,20.9-11.2,1.4-22.4,1.8-33.8,2.6Z"/>
      <path class="cls-1" d="M3381.1,554.5c0,65.1-.1,130.2.1,195.3,0,5.1-1.1,6.6-6.4,6.5-27.5-.3-55-.2-82.4,0-4.3,0-5.6-1-5.6-5.4.1-130.6.1-261.2,0-391.8,0-5.2,1.8-6,6.4-6,27.3.2,54.5.2,81.8,0,4.9,0,6.2,1.3,6.2,6.2-.2,65-.1,130.1-.1,195.2Z"/>
      <path class="cls-1" d="M3278.6,233.1c-.1-30.9,23.6-55.1,53.9-55.2,31.2-.1,56,24.1,56.1,54.7,0,31.8-24.2,56.1-56,56.1s-54-23.8-54-55.6Z"/>
    </g>
  </g>
</svg>