<?xml version="1.0" encoding="UTF-8"?>
<svg id="Layer_1" data-name="Layer 1" xmlns="http://www.w3.org/2000/svg" version="1.1" viewBox="0 0 2641.2 911.4">
  <defs>
    <style>
      .cls-1 {
        fill: #fff;
        stroke-width: 0px;
      }
    </style>
  </defs>
  <path class="cls-1" d="M1321.4,901.4c40.7,0,81.4.6,122.1-.3,18.3-.4,36.5-3.8,54.8-5.7,433.6-43.8,801.7-223.5,1109.1-530.6,20.3-20.3,18-29.8-1.1-48.4-91.2-89-180.8-179.5-271-269.5-46.3-46.2-45.5-45.4-92.4-.4-311,297.9-682.6,417.7-1107.9,363.3C838.7,371.9,586.4,238.8,377.1,26.1c-19.6-19.9-29.4-23-50.8-1C231.1,123,134,219.2,36.5,314.7c-19.5,19.1-24.4,29.3-1.9,51.7,355.9,354,785.2,532,1286.9,534.9Z"/>
</svg>