<?xml version="1.0" encoding="utf-8"?>
<!-- Generator: Adobe Illustrator 28.2.0, SVG Export Plug-In . SVG Version: 6.00 Build 0)  -->
<svg version="1.1" xmlns="http://www.w3.org/2000/svg" xmlns:xlink="http://www.w3.org/1999/xlink" x="0px" y="0px"
	 viewBox="0 0 4234.9 911.4" style="enable-background:new 0 0 4234.9 911.4;" xml:space="preserve">
<style type="text/css">
	.st0{fill:#FFFFFF;}
</style>
<g id="House">
	<g>
		<path class="st0" d="M703.8,414.6c0-14.4-5.1-25.5-15.5-35.2C591.8,289.4,495.3,199.2,398.8,109c-17.9-16.8-40.3-16.9-58-0.3
			c-39.9,37.4-79.9,74.8-119.8,112.1c-57.1,53.4-114.3,106.8-171.5,160.1c-9.2,8.6-14,18.8-14,31.4c0,118.6,0,237.2,0.1,355.8
			c0,23.4,17,40,40.3,40c97.9,0,195.8,0,293.7,0c97.5,0,194.9,0,292.4,0c25.7,0,41.8-16,41.8-41.5
			C703.7,649.3,703.6,532,703.8,414.6z M573.1,533.8c-45.3,45.2-99.2,73-162.8,82.2c-14,2-28.1,2.9-42.3,3
			c-74.4-1.3-139.1-26.8-193.6-77.6c-4.1-3.8-11-7.2-10.8-11.9c0.2-4,6.6-7.9,10.4-11.7c12.5-12.5,25.2-24.9,37.4-37.6
			c3.7-3.8,5.5-4.2,9.5-0.1c30.3,30.8,66.5,51.1,109.2,58.6c71.6,12.6,133.9-6.3,186.5-56.5c0.8-0.7,1.6-1.4,2.2-2.2
			c2.8-3.8,4.9-3.8,8.4-0.2c15.1,15.5,30.4,30.8,45.9,45.9C576.6,528.9,576.3,530.6,573.1,533.8z"/>
	</g>
</g>
<g id="Host">
	<g>
		<path class="st0" d="M1058.2,416.3c19.3-9.3,38.2-17.3,57.9-23.2c36.4-11.1,73.4-15,110.9-7.6c52,10.1,83.4,42.7,98.8,92.2
			c5.7,18.4,8.1,37.4,8.1,56.5c0.1,85.9,0,171.9,0.2,257.8c0,4.6-0.7,6.4-6,6.3c-46.7-0.2-93.3-0.2-140,0c-5.4,0-5.9-1.9-5.9-6.4
			c0.1-79.1,0.1-158.1,0.1-237.2c0-5.4-0.1-10.8-1.1-16.2c-4.3-23.7-19.9-35.9-44.2-34.1c-26.7,2-51.3,11.6-75.8,21.4
			c-3.9,1.6-3,4.4-3,7.2c0,51.2,0,102.4,0,153.6c0,35.2-0.1,70.3,0.1,105.5c0,5-1.3,6.1-6.2,6.1c-46.7-0.2-93.3-0.2-140,0
			c-4.9,0-6.1-1.2-6.1-6.1c0.1-188.3,0.1-376.6,0-564.9c0-5.6,1.6-6.8,6.9-7.1c46.5-2.6,93-5.4,139.5-8.5c5.1-0.3,5.8,1.2,5.8,5.7
			c-0.1,63.7-0.1,127.3-0.1,191C1058.2,410.7,1058.2,412.9,1058.2,416.3z"/>
		<path class="st0" d="M1623.3,372.1c46.9-0.2,88.8,7.3,127.5,27.9c57,30.4,89.2,78.9,99.9,141.8c6.8,40.2,6.3,80.4-6.9,119.5
			c-20.3,60-62.2,98.9-121,120.4c-41.1,15.1-83.8,18.8-127.2,15.6c-34.1-2.5-66.9-10.3-97.3-26.3c-54.9-29-87.1-74.5-97.2-135.4
			c-7.1-42.6-6.7-85,8.1-126.1c22.2-61.7,66-101.9,127.5-123.3C1565.8,376,1595.9,371.7,1623.3,372.1z M1698.3,587.2
			c-0.7-6.5-1.2-15.2-2.6-23.8c-3.3-19.7-10.9-37.3-25.1-51.8c-24.2-24.8-83.1-24.2-105.1,19.3c-13.8,27.2-14.3,55.9-8.8,85.1
			c3.1,16.7,10.1,31.7,22.8,43.4c16.9,15.5,37.6,17.8,59.1,14.8c28.4-4,46.6-20.3,54.8-47.7C1696.9,614.4,1697.6,601.9,1698.3,587.2
			z"/>
		<path class="st0" d="M2333.3,588.4c0-20-0.3-40,0.2-59.9c0.1-5.8-1.8-6.7-6.9-6.6c-16.9,0.3-33.7,0-50.6,0.2
			c-4.1,0.1-5.2-1-5.2-5.2c0.2-36.4,0.2-72.8,0-109.2c0-4,1-5.3,5.1-5.2c17.3,0.2,34.6-0.1,51.9,0.2c4.9,0.1,5.7-1.5,5.7-5.9
			c-0.2-32.3,0.1-64.5-0.3-96.8c-0.1-5.2,1.6-6.5,6.3-7.1c37.9-5,75.9-10.2,113.8-15.4c8.2-1.1,16.5-2.2,24.7-3.6
			c5-0.8,7.1-0.2,7,5.9c-0.3,38.7-0.1,77.4-0.3,116.1c0,5.5,1.2,6.9,6.8,6.9c31.2-0.3,62.5-0.1,93.7-0.2c4.2,0,5.5,1,6,5.3
			c4.2,36.5,8.6,73.1,13.2,109.6c0.6,5.1-2,4.7-5.3,4.7c-35.8,0-71.7,0.1-107.5-0.1c-5.2,0-7.1,0.9-7,6.7
			c0.3,30.4,0.1,60.8,0.2,91.1c0.1,13.5,2.1,26.5,10.5,37.8c9.1,12.3,21.7,17.6,36.8,17.7c18.9,0.1,36.7-4.5,53.3-13.3
			c3.9-2,5.5-2.3,7.4,2.4c12.9,31.3,26,62.4,39.3,93.5c1.8,4.3,0.5,6.3-2.8,8.5c-17.8,12-37.6,19.7-58.2,24.8
			c-65.2,16.1-126.3,6-180.7-33.8c-38.6-28.2-56.5-68.2-57-115.8C2333.1,623.8,2333.3,606.1,2333.3,588.4z"/>
		<path class="st0" d="M2083.3,372c41.4,1,82,6.1,120.4,22.9c10.7,4.7,20.6,10.9,30.1,17.6c2.7,1.9,3.2,3.5,1.8,6.6
			c-13.1,29.2-26.1,58.3-38.9,87.6c-1.8,4-3.4,3.9-6.8,2.5c-25-10.4-50.8-18.4-77.9-21.3c-14.1-1.5-28.3-1.9-42.1,2.5
			c-2.4,0.7-4.7,1.7-6.9,2.8c-11.3,6-11.7,14.1-1,21c13.7,8.9,29.3,13.6,44.5,19.2c33.3,12.3,65,27.7,92.9,50
			c28.1,22.5,40.1,52,38.3,87.7c-1.2,24.7-6.8,48.1-21,68.8c-18.9,27.5-46,42.7-77.6,50.7c-42.7,10.8-85.7,9.7-128.8,2
			c-29.1-5.2-57.9-11.3-84.8-24.2c-8.6-4.2-16.8-9.1-24.7-14.6c-2.6-1.8-3.4-3.4-1.9-6.6c13.2-29.3,26.2-58.8,39.1-88.2
			c1.3-2.9,2.4-3.5,5.5-2.2c30.8,13.7,63.2,21.8,96.6,25.8c10.8,1.3,21.6,1.7,32.2-1.4c1.6-0.5,3.2-0.9,4.7-1.6
			c5.8-2.6,11.6-5.7,12.2-12.8c0.5-6.7-5.4-9.4-9.9-12.4c-8.1-5.5-17.2-9.2-26.4-12.5c-37.8-13.3-74-29.7-106.3-53.9
			c-31.8-23.9-44.2-56.1-40.4-95.1c5.5-56.5,39.3-89.5,90.3-107.8C2024.6,375,2053.8,371.9,2083.3,372z"/>
	</g>
</g>
<g id="Wise">
	<g>
		<path class="st0" d="M2822.5,663.9c22.6-84.9,44.8-168.3,66.7-251.8c1.5-5.7,3.7-7.3,9.5-7.2c29.4,0.3,58.7,0.3,88.1,0
			c4.8,0,6.6,1.3,7.9,6c22.7,82.2,45.6,164.3,68.5,246.5c0.5,1.8,1.1,3.6,2,6.6c4.1-15.3,7.9-29.5,11.7-43.6
			c18.4-69.4,36.9-138.8,55.1-208.3c1.5-5.6,3.7-7.4,9.6-7.3c27.9,0.4,55.8,0.3,83.7,0.1c5,0,6.4,0.7,4.7,6
			c-41.4,130.5-82.6,261.1-123.7,391.7c-1.4,4.4-3.3,5.6-7.7,5.6c-23.3-0.2-46.7-0.3-70,0c-4.9,0.1-6.6-1.6-8-6.1
			c-25.8-84.3-51.7-168.5-77.7-252.7c-0.6-2.1-0.7-4.6-2.9-6.5c-9.7,33.2-19.4,66.2-29.1,99.1c-15.6,53.4-31.1,106.8-46.6,160.2
			c-1.3,4.3-2.9,6.2-7.9,6.1c-23.9-0.3-47.9-0.3-71.8,0c-3.9,0-5.3-1.3-6.4-4.7c-39.4-126.1-78.9-252.2-118.5-378.3
			c-1.2-3.8-0.8-5.5,3.6-6.8c27.2-8.4,54.2-17.1,81.2-26.1c4.3-1.4,5.2-0.1,6.1,3.5c23.3,87.4,46.6,174.7,69.9,262
			C2821,659.3,2821.5,660.8,2822.5,663.9z"/>
		<path class="st0" d="M4065.7,622.3c-44.4,0-88.7,0.1-133.1-0.1c-5.2,0-6.8,1.1-6,6.5c6.8,42.4,25.7,75.7,67.9,91.7
			c20.9,8,42.8,9.6,65,9.6c39.2,0.1,73.6-15.6,107.4-32.7c5.2-2.7,7.2-2.5,9.5,3.4c7.5,19.1,15.5,38,23.5,56.9
			c1.5,3.5,1.5,5.6-2.1,8c-45.6,30.1-95.6,44.6-150.3,43.7c-31.4-0.5-62.3-4-92-14.4c-63.7-22.2-104.1-66.4-120.2-131.5
			c-13.8-55.8-11.9-111.6,10.5-165.1c27.3-65.1,77.4-101.6,147.3-110.9c33-4.4,65.7-2.7,97.4,7.9c41.2,13.8,69.3,42.3,88.7,80.2
			c17.7,34.5,24.7,71.6,25.8,110c0.3,10.4-0.2,20.8,0.2,31.2c0.2,4.9-1.4,5.8-6,5.8C4154.9,622.2,4110.3,622.3,4065.7,622.3z
			 M4021.3,559.6c29.3,0,58.7-0.1,88,0.1c5,0,5.9-1.3,4.9-5.9c-2.7-12-5.7-23.8-10.6-35.1c-14.3-32.5-38.5-51.3-74.6-53.3
			c-30.1-1.6-56.4,6.5-76.2,30.4c-14.4,17.3-21,37.9-24.7,59.7c-0.8,4.4,1.8,4,4.6,4C3962.2,559.6,3991.8,559.6,4021.3,559.6z"/>
		<path class="st0" d="M3611.5,810.4c-43.6-1.6-85.7-9.6-124.9-29.9c-15.7-8.1-15.5-8.4-8.6-24.4c6.6-15.2,13.4-30.4,19.8-45.7
			c1.5-3.6,2.8-4.3,6.6-2.6c27.7,12.9,56.4,22.2,87.1,24.8c24.8,2,49.1,0.2,71.6-12c15.7-8.5,22.5-20.9,20-36
			c-1.6-9.7-7.1-17.2-14.2-23.6c-15.4-14-34.1-22.2-53.4-28.9c-25.9-9-51.9-17.6-75.9-31.2c-16.6-9.4-31.8-20.4-44.8-34.5
			c-37.7-40.8-26.8-103.8,2.2-135.2c22.5-24.3,51-36.8,82.9-42.3c60.6-10.4,117.4,1.7,171,30.6c9.1,4.9,8.9,5.2,4.5,14.7
			c-7.6,16.6-15.4,33.1-22.8,49.8c-1.6,3.6-3,4.3-6.8,2.6c-24.1-10.8-48.7-20.5-75.1-23.8c-18.4-2.3-36.9-3.8-54.9,2.9
			c-11.4,4.2-21.3,10.5-27.7,21.1c-8,13.1-6.1,25.6,5.6,35.7c12.8,11,28.2,17.4,43.8,23.3c25.2,9.6,50.8,18.3,74.6,31.3
			c19.6,10.7,37.7,23.4,53.4,39.6c46.9,48.2,34.5,136.8-28.9,170.2c-22.4,11.8-46.3,18.2-71.3,20.9
			C3634.2,809.2,3622.9,809.6,3611.5,810.4z"/>
		<path class="st0" d="M3390.4,606.4c0,65.1-0.1,130.2,0.1,195.3c0,5.1-1.1,6.6-6.4,6.5c-27.5-0.3-55-0.2-82.4,0
			c-4.3,0-5.6-1-5.6-5.4c0.1-130.6,0.1-261.2,0-391.8c0-5.2,1.8-6,6.4-6c27.3,0.2,54.5,0.2,81.8,0c4.9,0,6.2,1.3,6.2,6.2
			C3390.3,476.2,3390.4,541.3,3390.4,606.4z"/>
		<path class="st0" d="M3287.9,285c-0.1-30.9,23.6-55.1,53.9-55.2c31.2-0.1,56,24.1,56.1,54.7c0,31.8-24.2,56.1-56,56.1
			C3311.1,340.6,3288,316.8,3287.9,285z"/>
	</g>
</g>
</svg>
