<svg width="135" height="24" viewBox="0 0 135 24" fill="none" xmlns="http://www.w3.org/2000/svg">
<path class="apartool-menu-logo-1" d="M20.4347 14.678H0V18.6099H20.4347V14.678Z" fill="currentcolor" style="fill: rgb(20, 51, 58);"></path>
<path class="apartool-menu-logo-2" d="M14.2926 0.568359L11.5117 3.34922L20.4355 12.2731V6.71133L14.2926 0.568359Z" fill="currentcolor" style="fill: rgb(20, 51, 58);"></path>
<path class="apartool-menu-logo-3" d="M0 12.296L12.2859 0.0100098H6.7242L0 6.73423V12.296Z" fill="currentcolor" style="fill: rgb(20, 51, 58);"></path>
<path class="apartool-menu-logo-4" d="M43.7982 13.0641L42.7741 10.3395H35.4655L34.4413 13.0641H43.7982ZM122.191 16.301C119.468 16.301 117.56 14.2983 117.56 11.4573C117.56 8.61626 119.468 6.47384 122.191 6.47384C124.915 6.47384 126.8 8.5464 126.8 11.4573C126.8 14.3682 124.891 16.301 122.191 16.301ZM122.191 19.0489C126.754 19.0489 129.966 15.8586 129.966 11.3409C129.966 6.82315 126.754 3.72595 122.191 3.72595C117.629 3.72595 114.278 6.86972 114.278 11.3409C114.278 15.812 117.536 19.0489 122.191 19.0489ZM131.316 18.6298H134.481V0H131.316V18.6298ZM105.503 16.3476C102.919 16.3476 101.103 14.3449 101.103 11.5039C101.103 8.66284 102.919 6.52041 105.503 6.52041C108.086 6.52041 109.902 8.59297 109.902 11.5039C109.902 14.4148 108.086 16.3476 105.503 16.3476ZM105.503 19.0955C110.018 19.0955 113.184 15.9052 113.16 11.3874C113.184 6.9163 110.018 3.77252 105.503 3.77252C100.987 3.77252 97.8216 6.9163 97.8448 11.3874C97.8216 15.9052 100.987 19.0955 105.503 19.0955ZM87.906 6.70671H97.5655V4.07526H87.906V6.70671ZM95.4242 18.7229H97.5655V15.9983H95.1914C93.6785 15.9983 92.8405 15.1832 92.8405 13.7394V0H89.8147V13.4134C89.8147 17.1394 91.4905 18.7229 95.4242 18.7229ZM79.5267 18.6298H82.6922V10.8984C82.6922 8.19709 84.1586 6.70671 86.7888 6.70671H88.4879V4.07526H87.231C83.8095 4.07526 81.9009 5.8218 81.9009 8.98886H82.0405V4.19169H79.5267V18.6298ZM75.0578 18.6298H77.5715V9.52446C77.5715 5.6355 75.6396 3.95882 71.1241 3.95882C70.4026 3.95882 67.5396 4.12183 66.9345 4.19169V6.93958C67.5396 6.86972 69.681 6.70671 71.9155 6.70671C73.7543 6.70671 74.6621 7.59162 74.6621 9.40802V14.3216H75.0578V18.6298ZM70.4491 18.9791C74.4991 18.9791 75.5 15.9284 75.6629 14.4148L74.6621 13.297C74.6621 15.4394 73.219 16.5805 71.2405 16.5805C69.5879 16.5805 68.4241 15.5791 68.4241 14.1819C68.4241 12.7148 69.5879 11.6669 71.2405 11.6669H74.9879V9.6409H71.3569C67.656 9.6409 65.3284 11.4573 65.3284 14.3216C65.3284 17.1859 67.3069 18.9791 70.4491 18.9791ZM57.0189 16.3476C54.2957 16.3476 52.5965 14.4613 52.6198 11.4806C52.6198 8.40668 54.3189 6.47384 57.0189 6.47384C59.6724 6.45055 61.325 8.33681 61.325 11.3641C61.325 14.3915 59.6724 16.3476 57.0189 16.3476ZM49.5474 23.8461H52.7129V14.7641L51.456 12.6915C51.7586 16.6271 54.1793 19.0955 57.7405 19.0955C61.7207 19.0955 64.537 15.9052 64.5138 11.4107C64.5138 6.93958 61.6974 3.77252 57.7405 3.77252C54.2724 3.77252 51.8982 6.07796 51.5724 9.75733H52.0612V4.19169H49.5474V23.8461ZM39.562 2.74789L45.4508 18.6298H48.6629L41.6336 0H36.443L29.6465 18.6298H32.8818L38.5146 2.74789H39.562Z" fill="currentcolor" style="fill: rgb(20, 51, 58);"></path>
</svg>