<?xml version="1.0" encoding="UTF-8"?>
<svg id="Layer_1" xmlns="http://www.w3.org/2000/svg" version="1.1" viewBox="0 0 97 14">
  <!-- Generator: Adobe Illustrator 29.1.0, SVG Export Plug-In . SVG Version: 2.1.0 Build 142)  -->
  <defs>
    <style>
      .st0 {
        fill: #fd5d03;
      }
    </style>
  </defs>
  <path class="st0" d="M96,7.3c-.5-.4-1.3-.6-2.4-.7-.4,0-.8,0-1-.2-.2,0-.4-.2-.5-.3,0-.1-.1-.3-.1-.5,0-.3.1-.5.4-.7.2-.2.6-.3,1-.3s.8.1,1.2.3c.2.2.4.4.5.6h1.6c-.2-.7-.5-1.3-1-1.7-.5-.4-1.3-.6-2.2-.6s-1.2.1-1.6.3c-.5.2-.8.5-1.1.9-.3.4-.4.8-.4,1.2,0,.7.2,1.2.7,1.6.5.4,1.3.6,2.3.7.5,0,.8.1,1.1.2.3,0,.4.2.5.3,0,.1.1.3.1.5s-.1.5-.4.7c-.3.2-.6.3-1.1.3s-1-.1-1.3-.3c-.2-.1-.5-.4-.6-.7h-1.6c0,1.4,1.3,2.4,3.5,2.4s1.7-.2,2.3-.6c.6-.4.9-1,.9-1.7s-.2-1.3-.7-1.7h0Z"/>
  <path class="st0" d="M25.6,1.6v9.6h3.5c1.5,0,2.7-.4,3.6-1.3.8-.8,1.3-2,1.3-3.5s-.4-2.7-1.3-3.5c-.8-.8-2-1.3-3.6-1.3h-3.5ZM31.3,8.8c-.5.5-1.3.8-2.4.8h-1.4V3.2h1.4c1.1,0,1.9.3,2.4.8.5.5.8,1.3.8,2.4s-.3,1.9-.8,2.4h0Z"/>
  <path class="st0" d="M47.6,3.5l-1.4,4.6c-.2.7-.4,1.3-.5,1.9-.1-.6-.3-1.3-.5-1.9l-1.4-4.6h-1.9l2.6,7.7h2.4l2.6-7.7h-1.8Z"/>
  <path class="st0" d="M63.4,3.5h-1.8l-1.6,2.7-1.6-2.7h-1.9l2.4,3.8-2.5,3.9h1.8l1.7-2.9,1.8,2.9h1.9l-2.6-4,2.3-3.7Z"/>
  <path class="st0" d="M82.5,3.9c-.4.3-.6.6-.7,1.1h0v-1.4h-1.6v7.7h1.7v-4c0-.7.2-1.3.5-1.6.3-.3.8-.5,1.5-.5h.4v-1.7h-.1c-.6,0-1.1,0-1.6.4Z"/>
  <path class="st0" d="M69.9,3.8c-.5-.3-1-.5-1.6-.5s-1.3.2-1.8.7c-.3.3-.5.6-.6,1h0v-1.5h-1.6v10.5h1.7v-3.2h0v-1c.1.3.3.6.5.8.5.4,1.1.7,1.8.7s1.2-.2,1.6-.5c.5-.3.8-.8,1.1-1.4.3-.6.4-1.3.4-2.2s-.1-1.6-.4-2.2c-.3-.6-.6-1.1-1.1-1.4h0ZM69.3,9.2c-.3.4-.8.6-1.4.6s-1.1-.2-1.4-.6c-.3-.4-.5-1-.5-1.8s.2-1.4.5-1.8c.3-.4.8-.6,1.4-.6s1.1.2,1.4.6c.3.4.5,1,.5,1.8s-.2,1.4-.5,1.8Z"/>
  <path class="st0" d="M77.7,3.8c-.5-.3-1.2-.5-1.8-.5s-1.4.2-1.9.5c-.6.3-1,.8-1.3,1.4-.3.6-.5,1.3-.5,2.2s.2,1.7.5,2.2c.3.6.7,1.1,1.3,1.4.6.3,1.2.5,1.9.5s1.7-.3,2.3-.8c.5-.4.8-1,1-1.7h-1.7c-.1.2-.2.3-.3.4-.3.3-.7.4-1.2.4s-1.1-.2-1.5-.6c-.3-.3-.4-.8-.5-1.4h5.4v-.4c0-.8-.1-1.5-.4-2.1-.3-.6-.7-1.1-1.2-1.4h0ZM73.9,6.6c0-.5.2-.9.4-1.2.3-.4.8-.6,1.5-.6s1.1.2,1.5.6c.2.3.3.7.4,1.2h-3.8Z"/>
  <path class="st0" d="M40.2,3.8c-.5-.3-1.2-.5-1.8-.5s-1.4.2-1.9.5c-.6.3-1,.8-1.3,1.4-.3.6-.5,1.3-.5,2.2s.2,1.7.5,2.2c.3.6.7,1.1,1.3,1.4.6.3,1.2.5,1.9.5s1.7-.3,2.3-.8c.5-.4.8-1,1-1.7h-1.7c-.1.2-.2.3-.3.4-.3.3-.7.4-1.2.4s-1.1-.2-1.5-.6c-.3-.3-.4-.8-.5-1.4h5.4v-.4c0-.8-.1-1.5-.4-2.1-.3-.6-.7-1.1-1.2-1.4h0ZM36.4,6.6c0-.5.2-.9.4-1.2.3-.4.8-.6,1.5-.6s1.1.2,1.5.6c.2.3.3.7.4,1.2h-3.8Z"/>
  <path class="st0" d="M54.6,8.9c-.1.2-.2.3-.3.4-.3.3-.7.4-1.2.4s-1.1-.2-1.5-.6c-.3-.3-.4-.8-.5-1.4h5.4v-.4c0-.8-.1-1.5-.4-2.1-.3-.6-.7-1.1-1.2-1.4-.5-.3-1.2-.5-1.8-.5s-1.4.2-1.9.5c-.6.3-1,.8-1.3,1.4-.3.6-.5,1.3-.5,2.2s.2,1.7.5,2.2c.3.6.7,1.1,1.3,1.4.6.3,1.2.5,1.9.5s1.7-.3,2.3-.8c.5-.4.8-1,1-1.7h-1.7ZM51.6,5.4c.3-.4.8-.6,1.5-.6s1.1.2,1.5.6c.2.3.3.7.4,1.2h-3.8c0-.5.2-.9.4-1.2Z"/>
  <path class="st0" d="M88,1.7h-1.7v1.7h-1.3v1.7h1.3v4.1c0,.7.2,1.2.5,1.6.4.4.9.6,1.6.6h1.3v-1.5h-1.1c-.2,0-.4,0-.5-.2-.1-.1-.2-.3-.2-.5v-4.1h1.7v-1.7h-1.7v-1.7Z"/>
  <path class="st0" d="M63.4,3.5h-1.8l-1.6,2.7-1.6-2.7h-1.9l2.4,3.8-2.5,3.9h1.8l1.7-2.9,1.8,2.9h1.9l-2.6-4,2.3-3.7Z"/>
  <path class="st0" d="M10.2,5.6h1.4l5.4-3.5v3.5h1.6V0h-8.3v1.6h4.7l-4.7,3v1Z"/>
  <path class="st0" d="M16.9,7.2v3.5l-5.4-3.5h-1.4v1l4.7,3h-4.7v1.6h8.3v-5.6h-1.6Z"/>
  <path class="st0" d="M8.6,7.2h-1.4l-5.4,3.5v-3.5H.3v5.6h8.3v-1.6H3.9l4.7-3v-1Z"/>
  <path class="st0" d="M1.9,5.6v-3.5l5.4,3.5h1.4v-1L3.9,1.6h4.7V0H.3v5.6h1.6Z"/>
</svg>