<svg id="Warstwa_1" data-name="Warstwa 1" xmlns="http://www.w3.org/2000/svg" viewBox="0 0 167.94 69.08">
    <g>
        <g>
            <path d="M30.49,60a.25.25,0,0,1,.25-.34h.94a.28.28,0,0,1,.25.2l1.7,6.43h.06L36,59.64a.25.25,0,0,1,.24-.16h.25a.25.25,0,0,1,.24.16L39,66.25h.06l1.67-6.43a.29.29,0,0,1,.25-.2h.94a.24.24,0,0,1,.25.34l-2.65,9.42a.28.28,0,0,1-.25.2h-.22a.25.25,0,0,1-.24-.16l-2.47-7h-.07l-2.43,7a.25.25,0,0,1-.23.16h-.23a.28.28,0,0,1-.25-.2Z" transform="translate(-0.2 -0.5)" fill="#b6a774"/>
            <path d="M51.12,59.48a5.05,5.05,0,1,1-5,5.06A5,5,0,0,1,51.12,59.48Zm0,8.7a3.65,3.65,0,1,0-3.63-3.64A3.65,3.65,0,0,0,51.12,68.18Z" transform="translate(-0.2 -0.5)" fill="#b6a774"/>
            <path d="M61,59.89a.27.27,0,0,1,.26-.27h3.82a3,3,0,0,1,3,3A3.11,3.11,0,0,1,66,65.47L68,69a.27.27,0,0,1-.24.41h-1.1a.25.25,0,0,1-.22-.13L64.54,65.6H62.42v3.57a.28.28,0,0,1-.27.27h-.91a.27.27,0,0,1-.26-.27Zm4,4.5a1.74,1.74,0,0,0,1.71-1.74A1.71,1.71,0,0,0,64.94,61H62.45v3.41Z" transform="translate(-0.2 -0.5)" fill="#b6a774"/>
            <path d="M73.1,59.89a.27.27,0,0,1,.27-.27h.92a.28.28,0,0,1,.27.27v8.24h3.8a.27.27,0,0,1,.26.27v.77a.27.27,0,0,1-.26.27h-5a.27.27,0,0,1-.27-.27Z" transform="translate(-0.2 -0.5)" fill="#b6a774"/>
            <path d="M82.9,59.89a.27.27,0,0,1,.25-.27h3.22a4.91,4.91,0,1,1,0,9.82H83.15a.27.27,0,0,1-.25-.27Zm3.28,8.22a3.58,3.58,0,0,0,0-7.16H84.33v7.16Z" transform="translate(-0.2 -0.5)" fill="#b6a774"/>
            <path d="M95.22,60a.24.24,0,0,1,.25-.34h.94a.29.29,0,0,1,.25.2l1.7,6.43h0l2.29-6.61a.24.24,0,0,1,.24-.16h.25a.25.25,0,0,1,.24.16l2.31,6.61h.06l1.67-6.43a.28.28,0,0,1,.25-.2h.94a.25.25,0,0,1,.25.34l-2.65,9.42a.28.28,0,0,1-.25.2h-.23a.25.25,0,0,1-.23-.16l-2.47-7H101l-2.43,7a.27.27,0,0,1-.24.16h-.22a.28.28,0,0,1-.25-.2Z" transform="translate(-0.2 -0.5)" fill="#b6a774"/>
            <path d="M111.53,59.89a.28.28,0,0,1,.27-.27h.92a.28.28,0,0,1,.27.27v9.28a.28.28,0,0,1-.27.27h-.92a.28.28,0,0,1-.27-.27Z" transform="translate(-0.2 -0.5)" fill="#b6a774"/>
            <path d="M118.51,59.89a.27.27,0,0,1,.25-.27H122a4.91,4.91,0,1,1,0,9.82h-3.23a.27.27,0,0,1-.25-.27Zm3.28,8.22a3.58,3.58,0,0,0,0-7.16h-1.85v7.16Z" transform="translate(-0.2 -0.5)" fill="#b6a774"/>
            <path d="M131.73,59.89a.27.27,0,0,1,.27-.27h5.6a.27.27,0,0,1,.27.27v.79a.26.26,0,0,1-.27.26h-4.43V63.8h3.75a.27.27,0,0,1,.26.27v.78a.26.26,0,0,1-.26.27h-3.75v3h4.43a.27.27,0,0,1,.27.27v.77a.27.27,0,0,1-.27.27H132a.27.27,0,0,1-.27-.27Z" transform="translate(-0.2 -0.5)" fill="#b6a774"/>
        </g>
        <g>
            <path d="M.2,34.8a.54.54,0,0,1,.54-.54H12.49a.54.54,0,0,1,.54.54v3.1a.54.54,0,0,1-.54.54H4.63V42H11.1a.57.57,0,0,1,.54.54v3.1a.54.54,0,0,1-.54.54H4.63V50h7.86a.54.54,0,0,1,.54.54v3.1a.54.54,0,0,1-.54.53H.74a.54.54,0,0,1-.54-.53Z" transform="translate(-0.2 -0.5)" fill="#1e1a1c"/>
            <path d="M23.87,44l-5.74-8.9a.51.51,0,0,1,.48-.79h4.15a.6.6,0,0,1,.45.25l3.27,5.29h0l3.32-5.29a.58.58,0,0,1,.46-.25h4.14c.48,0,.74.42.48.79L29.14,44l6,9.41a.49.49,0,0,1-.45.79H30.7a.64.64,0,0,1-.48-.25L26.5,48.16h-.05L22.82,53.9a.65.65,0,0,1-.49.25H18.39c-.48,0-.74-.42-.48-.79Z" transform="translate(-0.2 -0.5)" fill="#1e1a1c"/>
            <path d="M49.6,34a9.5,9.5,0,0,1,6.87,2.65.53.53,0,0,1,0,.79l-2.22,2.31a.5.5,0,0,1-.7,0,5.83,5.83,0,0,0-3.84-1.45,5.81,5.81,0,0,0,0,11.62,6,6,0,0,0,3.81-1.36.56.56,0,0,1,.73,0l2.21,2.36a.57.57,0,0,1,0,.77,9.72,9.72,0,0,1-6.9,2.76A10.24,10.24,0,1,1,49.6,34" transform="translate(-0.2 -0.5)" fill="#1e1a1c"/>
            <path d="M62.74,34.8a.53.53,0,0,1,.54-.54h3.37a.55.55,0,0,1,.54.54V50H74a.53.53,0,0,1,.53.54v3.1a.53.53,0,0,1-.53.53H63.28a.53.53,0,0,1-.54-.53Z" transform="translate(-0.2 -0.5)" fill="#1e1a1c"/>
            <path d="M79.56,34.8a.56.56,0,0,1,.54-.54h3.49a.54.54,0,0,1,.54.54V46.31a3.52,3.52,0,1,0,7,0V34.8a.53.53,0,0,1,.54-.54H95.2a.56.56,0,0,1,.54.54V46.54a8.09,8.09,0,0,1-16.18,0Z" transform="translate(-0.2 -0.5)" fill="#1e1a1c"/>
            <path d="M102,51.46l1.33-2.36a.74.74,0,0,1,1-.18,8.37,8.37,0,0,0,4,1.57,1.78,1.78,0,0,0,2-1.71c0-1.19-1-2.1-2.92-2.87-2.44-1-5.51-2.87-5.51-6.28,0-2.81,2.19-5.66,6.56-5.66a10.57,10.57,0,0,1,6.07,2.13.72.72,0,0,1,.17.91l-1.44,2.19c-.2.32-.71.57-1,.37s-2.33-1.7-4.06-1.7a1.65,1.65,0,0,0-1.79,1.45c0,1,.86,1.85,3.1,2.75s5.73,2.62,5.73,6.48c0,2.93-2.52,5.89-6.7,5.89a9,9,0,0,1-6.38-2.19c-.29-.28-.37-.4-.14-.79" transform="translate(-0.2 -0.5)" fill="#1e1a1c"/>
            <rect x="121.3" y="33.75" width="4.49" height="19.9" rx="0.54" fill="#1e1a1c"/>
            <path d="M131.14,35a.5.5,0,0,1,.49-.74h3.77a.55.55,0,0,1,.48.31l4.68,10.37h.18l4.68-10.37a.54.54,0,0,1,.48-.31h3.77a.5.5,0,0,1,.49.74l-8.91,19.13a.55.55,0,0,1-.49.31h-.28a.53.53,0,0,1-.48-.31Z" transform="translate(-0.2 -0.5)" fill="#1e1a1c"/>
            <path d="M155.32,34.8a.54.54,0,0,1,.54-.54h11.75a.53.53,0,0,1,.53.54v3.1a.54.54,0,0,1-.53.54h-7.87V42h6.47a.56.56,0,0,1,.54.54v3.1a.54.54,0,0,1-.54.54h-6.47V50h7.87a.53.53,0,0,1,.53.54v3.1a.53.53,0,0,1-.53.53H155.86a.54.54,0,0,1-.54-.53Z" transform="translate(-0.2 -0.5)" fill="#1e1a1c"/>
        </g>
        <g>
            <path d="M107.54,10.43,107,8.92c-8.44,2.61-10.34,3.12-12.07,3.7A12.56,12.56,0,0,0,82.41.5h0A12.57,12.57,0,0,0,69.92,11.83c-4.21,1.35-7.85,3.06-7.52,4.87.15.85,1,2,6.44,2h.39l1.94-.06a12.53,12.53,0,0,0,23.71-4.34C96.93,13.6,105.18,11.11,107.54,10.43ZM82.4,24.18c-1.34,0-2.79-2.46-3.47-6.36,1.37-.19,2.78-.42,4.22-.68,1-.18,2-.38,2.91-.58C85.5,21.18,83.88,24.18,82.4,24.18Zm.47-8.57c-1.47.27-2.85.49-4.16.68A27.68,27.68,0,0,1,78.53,13c0-.65,0-1.28.06-1.9,1.06-.23,2.17-.45,3.34-.66,1.41-.26,2.8-.49,4.16-.68A29.84,29.84,0,0,1,86.27,13c0,.66,0,1.29-.06,1.91C85.12,15.18,84,15.4,82.87,15.61ZM71.26,13v0c1.69-.52,3.67-1,5.91-1.57,0,.53,0,1.06,0,1.59a30.25,30.25,0,0,0,.2,3.44c-2,.26-3.76.43-5.32.52A11.06,11.06,0,0,1,71.26,13ZM82.39,1.9h0c1.34,0,2.78,2.47,3.46,6.36-1.38.2-2.79.43-4.22.69-.18,0-1.31.24-2.92.59C79.29,4.91,80.91,1.91,82.39,1.9Zm5.09,7.71c1.87-.25,3.66-.42,5.32-.53a11.14,11.14,0,0,1,.74,4v0c-1.78.54-3.78,1.07-5.92,1.56,0-.53,0-1.06,0-1.59A30.2,30.2,0,0,0,87.48,9.61Zm4.61-2c-1.53.11-3.15.28-4.84.49a14.88,14.88,0,0,0-2.06-5.8A11.13,11.13,0,0,1,92.09,7.58ZM79.6,2.27a17.32,17.32,0,0,0-2.3,7.59c-1.76.39-3.85.91-5.9,1.52A11.16,11.16,0,0,1,79.6,2.27ZM63.94,16.42c.25-.59,2.28-1.71,5.94-3a12.2,12.2,0,0,0,.65,3.6C66.67,17.21,64.39,16.88,63.94,16.42Zm8.76,2.09c1.52-.11,3.15-.28,4.85-.5a15,15,0,0,0,2,5.8A11.17,11.17,0,0,1,72.7,18.51Zm12.49,5.3a17.31,17.31,0,0,0,2.31-7.56c2.11-.48,4.1-1,5.9-1.53A11.14,11.14,0,0,1,85.19,23.81Z" transform="translate(-0.2 -0.5)" fill="#b6a774"/>
            <path d="M111.77,7.31a1,1,0,0,0-.58-.12c-.48-.35-.88-.26-1.88-.08-2.21.79-4.4,1.57-6.56,2.49l-2.67-.1C99,8.79,97.9,8.08,96.83,7.38l-.8.31c.72,1.19,1.47,2.39,2.21,3.61l-2.1.13c-.14,0-.33.06-.34.11l2.24.35a.8.8,0,0,0,.43.45c1-.06,2-.15,3.07-.27.86-.1,5.2-1.44,6.12-1.64-.1,0,0,.18.07.24a.19.19,0,0,0,.17,0l.27,0s4-.22,4-.24a4,4,0,0,0,1.74-.8c.12-.14-3.88-.32-4.24-.5.79-.41,1.65-.61,2.08-1.62,0-.11,0-.11,0-.22Z" transform="translate(-0.2 -0.5)" fill="#b6a774" fill-rule="evenodd"/>
        </g>
    </g>
</svg>
