<?xml version="1.0" encoding="UTF-8"?>
<svg id="Layer_1" xmlns="http://www.w3.org/2000/svg" version="1.1" viewBox="0 0 670 111">
  <!-- Generator: Adobe Illustrator 29.1.0, SVG Export Plug-In . SVG Version: 2.1.0 Build 142)  -->
  <defs>
    <style>
      .st0 {
        fill: #1e1e1e;
        fill-rule: evenodd;
      }
    </style>
  </defs>
  <path class="st0" d="M142.1,47.9c-.4.9.1,1.8,1.2,1.8h4.4c.8,0,1.4-.6,1.6-1.1,1.4-3.2,2.9-6.4,4.3-9.6h22.9l4.3,9.6c.3.6.8,1.1,1.6,1.1h4.4c1,0,1.6-.9,1.2-1.8L166.6.8c-.2-.4-.8-.8-1.2-.8h-.7c-.4,0-1,.4-1.2.8l-21.5,47.1ZM444.3,25.3c0-14,11.1-25.3,25.1-25.3s25.2,11.3,25.2,25.3-11.2,25.1-25.2,25.1-25.1-11.1-25.1-25.1ZM235.4,49.7c-.7,0-1.3-.6-1.3-1.3V7.3h-11.4c-.8,0-1.3-.6-1.3-1.3v-3.9c0-.7.6-1.3,1.3-1.3h30.1c.8,0,1.3.6,1.3,1.3v3.9c0,.7-.6,1.3-1.3,1.3h-11.4v41.1c0,.7-.6,1.3-1.3,1.3h-4.6ZM1.3,49.7c-.8,0-1.3-.6-1.3-1.3V2C0,1.3.6.7,1.3.7h16c8.6,0,15.7,7,15.7,15.5s-7.1,15.7-15.6,15.7H7.2v16.5c0,.7-.6,1.3-1.3,1.3H1.3ZM76.6,48.4c0,.7.6,1.3,1.3,1.3h24.9c.8,0,1.3-.6,1.3-1.3v-3.8c0-.7-.6-1.3-1.3-1.3h-19V2c0-.7-.6-1.3-1.3-1.3h-4.6c-.8,0-1.3.6-1.3,1.3v46.3ZM296.7,48.4c0,.7.6,1.3,1.3,1.3h28c.8,0,1.3-.6,1.3-1.3v-3.8c0-.7-.6-1.3-1.3-1.3h-22.1v-15.1h18.7c.7,0,1.3-.6,1.3-1.3v-3.9c0-.7-.6-1.3-1.3-1.3h-18.7V7.3h22.1c.8,0,1.3-.6,1.3-1.3v-3.9c0-.7-.6-1.3-1.3-1.3h-28c-.8,0-1.3.6-1.3,1.3v46.3ZM374.2,49.7c-.8,0-1.3-.6-1.3-1.3V2c0-.7.6-1.3,1.3-1.3h28c.8,0,1.3.6,1.3,1.3v3.9c0,.7-.6,1.3-1.3,1.3h-22.1v16.2h18.7c.7,0,1.3.6,1.3,1.3v3.9c0,.7-.6,1.3-1.3,1.3h-18.7v18.4c0,.7-.6,1.3-1.3,1.3h-4.6ZM540.6,49.7c-.8,0-1.3-.6-1.3-1.3V2c0-.7.6-1.3,1.3-1.3h19c8.4,0,15.3,6.6,15.3,15s-4.3,11.8-10.4,14.2l9.6,17.8c.5.9,0,2-1.2,2h-5.5c-.6,0-1-.4-1.1-.6l-9.3-18.6h-10.6v17.9c0,.7-.6,1.3-1.3,1.3h-4.6ZM665.4.7h3.5c.7,0,1.3.6,1.3,1.3v46.3c0,.7-.6,1.3-1.3,1.3h-4.6c-.7,0-1.3-.6-1.3-1.3v-24.5c-4.6,4.7-11,7.7-18.2,7.7s-13.6-2.9-18.2-7.7v24.5c0,.7-.6,1.3-1.3,1.3h-4.6c-.8,0-1.3-.6-1.3-1.3V2.1c0-.7.6-1.3,1.3-1.3h3.5c1.7,0,1.8.9,1.8,2.2,0,3.8.7,7.2,2,10.1,2.6,6.8,9.2,11.5,16.9,11.5s14.3-4.8,16.9-11.5c1.3-2.9,2-6.3,2-10.1s0-2.2,1.8-2.2ZM469.5,43.4c-9.9,0-18.1-8.1-18.1-18.1s8.2-18.3,18.1-18.3,18.2,8.3,18.2,18.3-8.2,18.1-18.2,18.1ZM546.6,24.5V7.5h12.5c4.5,0,8.5,3.8,8.5,8.3s-4,8.7-8.5,8.7h-12.5ZM7.2,25.1V7.7h9.7c4.8,0,8.9,3.6,8.9,8.4s-4.1,9-8.9,9H7.2ZM156.3,33l8.5-19.2h.4l8.6,19.2h-17.5ZM386.1,109.3c1.5.9,3.2,1.3,5.1,1.3s4.3-.6,6-1.9c1.7-1.3,2.8-3.1,3.3-5.3h-2.5c-.5,1.5-1.4,2.7-2.6,3.5-1.2.9-2.6,1.3-4.3,1.3s-4-.7-5.4-2.2c-1.4-1.4-2.1-3.3-2.1-5.5s.7-4.1,2.1-5.5c1.4-1.4,3.2-2.2,5.4-2.2s3,.4,4.2,1.2c1.2.8,2,1.9,2.6,3.3h2.5c-.6-2.1-1.7-3.8-3.3-5-1.7-1.3-3.6-1.9-5.9-1.9s-3.6.4-5.1,1.3c-1.5.9-2.7,2.1-3.6,3.6-.9,1.5-1.3,3.3-1.3,5.2s.4,3.7,1.3,5.2c.9,1.5,2,2.7,3.6,3.6ZM285.2,108.9c1.3,1.1,3.1,1.7,5.2,1.7s2.5-.2,3.5-.7c1-.4,1.8-1.1,2.5-2,.6-.9.9-1.9.9-3.1s0-.8-.1-1.1c-.3-1.5-1.2-2.6-2.9-3.4-.7-.3-1.9-.7-3.6-1.1-.5-.1-.8-.2-1.1-.3s-.6-.2-1-.3c-.4-.1-.7-.2-.9-.3-.2-.1-.5-.2-.7-.4-.3-.2-.5-.3-.6-.5-.1-.2-.3-.4-.3-.7,0-.2-.1-.5-.1-.8,0-.9.4-1.6,1.2-2.2.8-.5,1.8-.8,3-.8s2.2.3,3,.9c.8.6,1.2,1.5,1.2,2.5h2.4c0-1.8-.6-3.2-1.7-4.2-1.2-1-2.8-1.6-4.8-1.6s-3.6.5-4.8,1.5c-1.2,1-1.8,2.3-1.8,4s0,.6,0,.9c.2,1.5,1.1,2.6,2.7,3.4.7.3,1.9.7,3.6,1.1.4,0,.7.2.8.2.2,0,.4.1.8.2.3,0,.6.2.8.2s.4.2.7.3c.3.1.5.2.6.3.1.1.3.2.5.4.2.2.3.3.4.5,0,.2.2.4.2.6,0,.2,0,.5,0,.7,0,1-.4,1.8-1.2,2.5-.8.6-1.9.9-3.1.9s-2.5-.3-3.4-1c-.9-.7-1.3-1.6-1.3-2.8h-2.5c0,1.9.7,3.4,2,4.6ZM487.4,110.6c-2.2,0-3.9-.6-5.2-1.7-1.3-1.1-2-2.7-2-4.6h2.5c0,1.2.4,2.1,1.3,2.8.9.7,2,1,3.4,1s2.3-.3,3.1-.9c.8-.6,1.2-1.4,1.2-2.5s0-.5,0-.7c0-.2-.1-.4-.2-.6,0-.2-.2-.3-.4-.5-.2-.2-.3-.3-.5-.4-.1-.1-.3-.2-.6-.3-.3-.1-.5-.2-.7-.3-.2,0-.4-.1-.8-.2-.3,0-.6-.2-.8-.2-.2,0-.5-.1-.8-.2-1.7-.4-2.8-.8-3.6-1.1-1.6-.8-2.5-1.9-2.7-3.4,0-.3,0-.6,0-.9,0-1.7.6-3,1.8-4,1.2-1,2.8-1.5,4.8-1.5s3.6.5,4.8,1.6c1.2,1,1.7,2.5,1.7,4.2h-2.4c0-1.1-.4-1.9-1.2-2.5-.8-.6-1.8-.9-3-.9s-2.2.3-3,.8c-.8.5-1.2,1.3-1.2,2.2s0,.6.1.8c0,.3.2.5.3.7.1.2.3.4.6.5.3.2.5.3.7.4.2.1.5.2.9.3.4.1.7.2,1,.3.3,0,.6.2,1.1.3,1.7.4,2.8.8,3.6,1.1,1.6.7,2.6,1.9,2.9,3.4,0,.4.1.7.1,1.1,0,1.2-.3,2.2-.9,3.1-.6.9-1.4,1.6-2.5,2-1,.4-2.2.7-3.5.7ZM187.2,110.3l-4.5-7.7h-4.4v7.7h-2.4v-19.6h7.4c1.8,0,3.3.6,4.5,1.7,1.2,1.1,1.8,2.6,1.8,4.3s-.4,2.6-1.2,3.6c-.8,1-1.8,1.7-3.1,2.1l4.7,8h-2.7ZM209.7,108.5c1.4,1.4,3.3,2.1,5.5,2.1s2.7-.3,3.9-1c1.2-.6,2.1-1.5,2.7-2.7.7-1.2,1-2.5,1-3.9v-12.3h-2.5v12.1c0,1.6-.5,2.9-1.4,3.9-1,1-2.2,1.5-3.7,1.5s-2.8-.5-3.7-1.5c-1-1-1.4-2.3-1.4-3.9v-12.1h-2.5v12.3c0,2.2.7,4,2.2,5.5ZM241.8,110.3h2.4v-19.6h-2.4v19.6ZM312.4,110.3l8-19.6h2.3l8.2,19.6h-2.6l-1.9-4.7h-9.4l-1.9,4.7h-2.6ZM363.4,90.7v19.6h-2.1l-11.1-15.3v15.3h-2.4v-19.6h2.2l10.9,15.1v-15.1h2.4ZM433.1,90.7v19.6h-2.4v-8.9h-10.1v8.9h-2.4v-19.6h2.4v8.3h10.1v-8.3h2.4ZM463.3,93.1v-2.3h-11v19.6h11.3v-2.3h-8.9v-6.6h7.9v-2.3h-7.9v-6.1h8.6ZM178.3,100.3v-7.3h4.8c1.2,0,2.1.3,2.9,1,.7.7,1.1,1.6,1.1,2.6s-.4,1.9-1.1,2.6c-.7.7-1.7,1-2.9,1h-4.8ZM321.6,94.1l3.8,9.3h-7.5l3.7-9.3Z"/>
</svg>