<?xml version="1.0" encoding="UTF-8"?>
<svg id="Layer_1" xmlns="http://www.w3.org/2000/svg" version="1.1" viewBox="0 0 500 500">
  <!-- Generator: Adobe Illustrator 29.1.0, SVG Export Plug-In . SVG Version: 2.1.0 Build 142)  -->
  <defs>
    <style>
      .st0 {
        fill: #fff;
      }

      .st1 {
        fill: #0a4362;
      }
    </style>
  </defs>
  <path id="House_2" class="st1" d="M249.9,476.4c-62.3,0-124.6,0-186.8,0-14.8,0-25.6-10.6-25.6-25.4,0-75.4,0-150.9,0-226.3,0-8,3.1-14.6,8.9-20,36.4-33.9,72.7-67.9,109.1-101.9,25.4-23.8,50.8-47.5,76.2-71.3,11.3-10.6,25.5-10.5,36.9.2,61.4,57.4,122.8,114.8,184.2,172.1,6.6,6.1,9.9,13.2,9.8,22.4-.2,74.7,0,149.3,0,224,0,16.2-10.3,26.4-26.6,26.4-62,0-124,0-186,0Z"/>
  <path class="st0" d="M307.7,288.3c-3.4,0-6.4,1.2-8.9,3.2-2.9-4.4-7.9-7.3-13.6-7.3s-6.6,1-9.2,2.8c-2.2-6.4-8.3-11-15.4-11s-8.8,2-11.8,5.1c-3-3.7-7.4-6-12.5-6h-.8c-8.9,0-16.1,7.2-16.1,16.1v7.3l-14.6,9.1c-.7.4-1.2,1-1.5,1.7l-10.5,21.3c-3.3,6.7-4.3,14.4-2.9,21.7,1.3,6.7,4.6,12.8,9.3,17.5l32.8,34.2v27.8c0,2.3,1.8,4.1,4.1,4.1h77.8c2.3,0,4.1-1.8,4.1-4.1v-16.7c0-3.3.2-6.5.7-9.8l2.2-16.4c.8-6,1.2-12.2,1.2-18.3v-69.9c0-.8-.3-1.5-.7-2.2-1.8-5.8-7.2-10.1-13.6-10.1M307.7,296.5c3.4,0,6.1,2.8,6.1,6.1v20.4c0,3.4-2.8,6.1-6.1,6.1s-6.1-2.8-6.1-6.1v-20.4c0-3.4,2.8-6.1,6.1-6.1M285.1,292.4c4.5,0,8.2,3.7,8.2,8.2v20.5c0,4.5-3.7,8.2-8.2,8.2s-8.2-3.7-8.2-8.2v-20.5c0-4.5,3.7-8.2,8.2-8.2M260.6,284.2c4.5,0,8.2,3.7,8.2,8.2v28.7c0,3.5-2.2,6.5-5.3,7.6l.3-.5c1-2,.3-4.4-1.6-5.5l-9.8-5.6v-24.7c0-4.5,3.7-8.2,8.2-8.2M235.4,283.3h.8c4.4,0,7.9,3.6,7.9,7.9v21.2l-16.7-9.6v-.8c.4-.9.4-1.9,0-2.9v-8c0-4.4,3.6-7.9,7.9-7.9M312.7,387.7l-2.2,16.4c-.5,3.6-.7,7.2-.7,10.9v12.6h-69.6v-25.3c0-1.1-.4-2.1-1.1-2.8l-34-35.4c-3.7-3.6-6.1-8.3-7.1-13.3-1.1-5.6-.3-11.4,2.2-16.5l9.9-20.2c.3,0,.6-.1.9-.3l9.6-5.5,34.3,19.7-.2.4c-4.4,8.5-14.3,12.8-22.8,10-3.6-1.2-6.1-3.2-7.7-6.2-1-2-3.5-2.8-5.5-1.7h0c-2,1.1-2.8,3.5-1.7,5.5,2.6,5,6.8,8.4,12.4,10.2,2.5.8,5.2,1.2,7.8,1.2,5.1,0,10.1-1.5,14.4-4.1.1,0,.3.1.4.1,9.7,1.4,17,9.3,17,18.5v22.8c0,2.3,1.8,4.1,4.1,4.1s4.1-1.8,4.1-4.1v-22.8c0-10.5-6.5-19.9-16.1-24.2,4.8,0,9.1-2.3,12-5.6,3,3.4,7.4,5.7,12.3,5.7s8.8-1.9,11.8-5c2.6,3,6.5,5,10.8,5s4.3-.5,6.1-1.4v34.5c0,5.7-.4,11.5-1.2,17.2M189.3,301.4l-45-32.8c-1.8-1.3-4.4-.9-5.7.9-1.3,1.8-.9,4.4.9,5.7l45,32.8c.7.5,1.5.8,2.4.8,2.3,0,4.1-1.8,4.1-4.1,0-1.3-.6-2.5-1.7-3.3M200,286.7c.8,1,2,1.6,3.2,1.6,2.3,0,4.1-1.8,4.1-4.1,0-.9-.3-1.8-.8-2.5l-41-53.2c-1.4-1.8-3.9-2.1-5.7-.8h0c-1.8,1.4-2.1,4-.7,5.7l41,53.2ZM219.8,264.8c.6,2.2,2.8,3.5,5,2.9,2.2-.6,3.5-2.8,2.9-5l-17.8-65.3c-.6-2.2-2.8-3.5-5-2.9,0,0,0,0,0,0-2.2.6-3.5,2.8-2.9,5l17.8,65.3ZM252.1,263.7c2.3.1,4.2-1.6,4.3-3.8l4.1-65.5c.1-2.3-1.6-4.2-3.8-4.3-2.3-.2-4.2,1.6-4.3,3.8l-4.1,65.5c-.1,2.3,1.6,4.2,3.8,4.3M279.3,267.4c2.1,1,4.5,0,5.4-2l26-56.2c1-2.1,0-4.5-2-5.4-2.1-.9-4.5,0-5.4,2l-26,56.2c-1,2.1,0,4.5,2,5.4M343.7,232.2l-36.9,36.9c-1.6,1.6-1.7,4.2-.1,5.8,1.6,1.6,4.2,1.7,5.8.1,0,0,0,0,.1-.1l36.9-36.9c1.6-1.6,1.7-4.2.1-5.8-1.6-1.6-4.2-1.7-5.8-.1,0,0,0,0-.1.1M145.6,380.8l-8.7,8.7c-1.6,1.6-1.7,4.2-.1,5.8,1.6,1.6,4.2,1.7,5.8.1,0,0,0,0,.1-.1l8.7-8.7c1.6-1.6,1.7-4.2.1-5.8-1.6-1.6-4.2-1.7-5.8-.1,0,0,0,0-.1.1M160.1,376.2c1.1,0,2.1-.4,2.9-1.2l8.7-8.7c1.6-1.6,1.7-4.2.1-5.8-1.6-1.6-4.2-1.7-5.8-.1,0,0,0,0-.1.1l-8.7,8.7c-1.6,1.6-1.6,4.2,0,5.8.8.8,1.8,1.2,2.9,1.2M164,381.7c-1.6-1.6-4.2-1.7-5.8-.1-1.6,1.6-1.7,4.2-.1,5.8,0,0,0,0,.1.1l8.8,8.8c.8.8,1.8,1.2,2.9,1.2s2.1-.4,2.9-1.2c1.6-1.6,1.6-4.2,0-5.8l-8.8-8.8ZM142.7,360.5c-1.6-1.6-4.2-1.7-5.8-.1-1.6,1.6-1.7,4.2-.1,5.8,0,0,0,0,.1.1l8.7,8.7c.8.8,1.8,1.2,2.9,1.2s2.1-.4,2.9-1.2c1.6-1.6,1.6-4.2,0-5.8l-8.7-8.7ZM347.2,217.3c1.2,0,2.4-.2,3.7-.5,6.7-2,10.4-9.1,8.4-15.8s-9.1-10.4-15.8-8.4c-3.2,1-5.9,3.2-7.5,6.1-1.6,3-1.9,6.4-1,9.6,1.7,5.4,6.7,9,12.1,9M343.3,202.6c.6-1,1.5-1.8,2.6-2.2.4-.1.9-.2,1.3-.2,2,0,3.7,1.3,4.3,3.2.7,2.3-.6,4.8-3,5.5-2.3.7-4.8-.6-5.5-3-.3-1.1-.2-2.3.3-3.4M356.6,334.4l3.1-3.1c1.6-1.6,1.7-4.2.1-5.8-1.6-1.6-4.2-1.7-5.8-.1,0,0,0,0-.1.1l-3.1,3.1-3.1-3.1c-1.6-1.6-4.2-1.7-5.8-.1-1.6,1.6-1.7,4.2-.1,5.8,0,0,0,0,.1.1l3.1,3.1-3.1,3.1c-1.6,1.6-1.7,4.2-.1,5.8,1.6,1.6,4.2,1.7,5.8.1,0,0,0,0,.1-.1l3.1-3.1,3.1,3.1c.8.8,1.8,1.2,2.9,1.2s2.1-.4,2.9-1.2c1.6-1.6,1.6-4.2,0-5.8l-3.1-3.1Z"/>
</svg>