<?xml version="1.0" encoding="UTF-8"?>
<svg id="Layer_1" xmlns="http://www.w3.org/2000/svg" version="1.1" viewBox="0 0 500 500">
  <!-- Generator: Adobe Illustrator 29.1.0, SVG Export Plug-In . SVG Version: 2.1.0 Build 142)  -->
  <defs>
    <style>
      .st0 {
        fill: #fff;
      }

      .st1 {
        fill: #0a4362;
      }
    </style>
  </defs>
  <path id="House_2" class="st1" d="M249.9,476.4c-62.3,0-124.6,0-186.8,0-14.8,0-25.6-10.6-25.6-25.4,0-75.4,0-150.9,0-226.3,0-8,3.1-14.6,8.9-20,36.4-33.9,72.7-67.9,109.1-101.9,25.4-23.8,50.8-47.5,76.2-71.3,11.3-10.6,25.5-10.5,36.9.2,61.4,57.4,122.8,114.8,184.2,172.1,6.6,6.1,9.9,13.2,9.8,22.4-.2,74.7,0,149.3,0,224,0,16.2-10.3,26.4-26.6,26.4-62,0-124,0-186,0Z"/>
  <path class="st0" d="M280.5,214.4c-1-3.1-3.7-5.5-6.9-6l-11.8-2.1-5.6-11.2c-1.5-3.1-4.6-5-7.9-5s-6.4,1.9-7.9,5l-5.6,11.2-11.8,2.1c-3.2.6-5.9,2.9-6.9,6-1.1,3.2-.3,6.8,2,9.3l8.5,9-1.8,12.5c-.5,3.4.9,6.8,3.7,8.8,2.7,1.9,6.2,2.1,9.1.6l10.7-5.6,10.7,5.6c2.9,1.5,6.4,1.3,9.1-.6,2.8-2,4.2-5.4,3.7-8.8l-1.8-12.5,8.5-9c2.3-2.5,3.1-6,2-9.3h0ZM272.6,218l-9.9,10.5c-.9.9-1.3,2.2-1.1,3.4l2.1,14.5c0,.6-.2.9-.4,1-.3.2-.5,0-.6,0l-12.6-6.6c-1.2-.6-2.6-.6-3.8,0l-12.6,6.6c-.1,0-.3.1-.6,0-.1,0-.4-.4-.4-1l2.1-14.5c.2-1.2-.2-2.5-1.1-3.4l-9.9-10.5c-.3-.3-.3-.7-.2-1.1.1-.3.3-.5.6-.6l13.9-2.4c1.3-.2,2.4-1,3-2.2l6.5-13c0-.1.2-.4.6-.4s.5.3.6.4l6.5,13c.6,1.2,1.7,2,3,2.2l13.9,2.4c.3,0,.4.2.6.6.1.4,0,.8-.2,1.1M206.9,247.1c-1-3.1-3.7-5.5-6.9-6l-11.8-2.1-5.6-11.2c-1.5-3.1-4.6-5-7.9-5s-6.4,1.9-7.9,5l-5.6,11.2-11.8,2.1c-3.2.6-5.9,2.9-6.9,6-1.1,3.2-.3,6.8,2,9.3l8.5,9-1.8,12.5c-.5,3.4.9,6.8,3.7,8.8,2.7,1.9,6.2,2.1,9.1.6l10.7-5.6,10.7,5.6c2.9,1.5,6.4,1.3,9.1-.6,2.8-2,4.2-5.4,3.7-8.8l-1.8-12.5,8.5-9c2.3-2.5,3.1-6,2-9.3h0ZM198.9,250.8l-9.9,10.5c-.9.9-1.3,2.2-1.1,3.4l2.1,14.5c0,.6-.2.9-.4,1-.3.2-.5.1-.6,0l-12.6-6.6c-1.2-.6-2.6-.6-3.8,0l-12.6,6.6c-.1,0-.3.1-.6,0-.1,0-.4-.4-.4-1l2.1-14.5c.2-1.2-.2-2.5-1.1-3.4l-9.9-10.5c-.3-.3-.3-.7-.2-1.1.1-.3.3-.5.6-.6l13.9-2.4c1.3-.2,2.4-1,3-2.2l6.5-13c0-.1.2-.4.6-.4s.5.3.6.4l6.5,13c.6,1.2,1.7,2,3,2.2l13.9,2.4c.3,0,.4.2.6.6.1.4,0,.8-.2,1.1M354.2,247.1c-1-3.1-3.7-5.5-6.9-6l-11.8-2.1-5.6-11.2c-1.5-3.1-4.6-5-7.9-5s-6.4,1.9-7.9,5l-5.6,11.2-11.8,2.1c-3.2.6-5.9,2.9-6.9,6-1.1,3.2-.3,6.8,2,9.3l8.5,9-1.8,12.5c-.5,3.4.9,6.8,3.7,8.8,2.7,1.9,6.2,2.1,9.1.6l10.7-5.6,10.7,5.6c2.9,1.5,6.4,1.3,9.1-.6,2.8-2,4.2-5.4,3.7-8.8l-1.8-12.5,8.5-9c2.3-2.5,3.1-6,2-9.3h0ZM346.2,250.8l-9.9,10.5c-.9.9-1.3,2.2-1.1,3.4l2.1,14.5c0,.6-.2.9-.4,1-.3.2-.5.1-.6,0l-12.6-6.6c-1.2-.6-2.6-.6-3.8,0l-12.6,6.6c-.1,0-.3.1-.6,0-.1,0-.4-.4-.4-1l2.1-14.5c.2-1.2-.2-2.5-1.1-3.4l-9.9-10.5c-.3-.3-.3-.7-.2-1.1.1-.3.3-.5.6-.6l13.9-2.4c1.3-.2,2.4-1,3-2.2l6.5-13c0-.1.2-.4.6-.4s.5.3.6.4l6.5,13c.6,1.2,1.7,2,3,2.2l13.9,2.4c.3,0,.4.2.6.6.1.4,0,.8-.2,1.1M248.3,288.4c-67.7,0-122.8,55.1-122.8,122.8s3.7,8.2,8.2,8.2h49.1c4.5,0,8.2-3.7,8.2-8.2,0-31.6,25.7-57.3,57.3-57.3,19.3,0,37.3,9.7,47.8,25.9-18.3,6.5-32.4,11.7-42.8,15.8-1.6-.4-3.3-.7-5-.7-11.3,0-20.5,9.2-20.5,20.5s9.2,20.5,20.5,20.5,15-4.7,18.3-11.5c10.7-5.8,24.4-13.7,38.2-21.8.5,2.9.8,5.8.8,8.8,0,4.5,3.7,8.2,8.2,8.2h49.1c4.5,0,8.2-3.7,8.2-8.2,0-67.7-55.1-122.8-122.8-122.8M291.6,362.1c-10.9-9.6-24.7-15.4-39.2-16.3v-49.1c28.5,1,54.4,12.5,73.9,30.7l-34.7,34.7ZM182.8,411.2h-49.1c0-30.1,11.7-57.6,30.8-78l34.8,34.8c-10.2,11.5-16.4,26.7-16.4,43.2M205,362.1l-34.8-34.8c19.5-18.2,45.4-29.7,73.9-30.7v49.2c-14.5.9-28.3,6.6-39.2,16.2M335.3,374.8c-19.6,11.8-46.8,27.9-66.7,39-.3-4.9-2.5-9.6-6-13.1,16.5-6.3,40.4-14.8,72.7-25.9M248.3,427.5c-6.8,0-12.3-5.5-12.3-12.3s5.5-12.3,12.3-12.3,12.3,5.5,12.3,12.3-5.5,12.3-12.3,12.3M313.8,411.2c0-4.5-.5-8.9-1.4-13.2,9.6-5.7,19-11.3,27.1-16.1,3.7-2.2,5-6.7,3.2-10.5-1.7-3.8-6.1-5.7-10.1-4.3-10.4,3.6-19.9,6.9-28.6,9.9-2-3.2-4.2-6.2-6.7-9.1l34.7-34.7c19.1,20.5,30.8,47.9,30.8,78h-49.1,0Z"/>
</svg>