<?xml version="1.0" encoding="UTF-8"?>
<svg id="Layer_1" xmlns="http://www.w3.org/2000/svg" version="1.1" viewBox="0 0 500 500">
  <!-- Generator: Adobe Illustrator 29.1.0, SVG Export Plug-In . SVG Version: 2.1.0 Build 142)  -->
  <defs>
    <style>
      .st0 {
        fill: #fff;
      }

      .st1 {
        fill: #0a4362;
      }
    </style>
  </defs>
  <path id="House_2" class="st1" d="M249.9,476.4c-62.3,0-124.6,0-186.8,0-14.8,0-25.6-10.6-25.6-25.4,0-75.4,0-150.9,0-226.3,0-8,3.1-14.6,8.9-20,36.4-33.9,72.7-67.9,109.1-101.9,25.4-23.8,50.8-47.5,76.2-71.3,11.3-10.6,25.5-10.5,36.9.2,61.4,57.4,122.8,114.8,184.2,172.1,6.6,6.1,9.9,13.2,9.8,22.4-.2,74.7,0,149.3,0,224,0,16.2-10.3,26.4-26.6,26.4-62,0-124,0-186,0Z"/>
  <path class="st0" d="M151.4,431.9c8.4,0,16.1-4.5,20.2-11.8,12.4-.8,27.9-6,45.1-15.4h.9c1.9,15.3,15,27.2,30.8,27.2s28.8-11.9,30.8-27.2h.9c18.8,10.2,35.4,15.5,48.2,15.5s16.1-2.5,21.1-7.5c11.6-11.6,9.9-33.9-4.7-63,2.9-2.9,4.5-6.8,4.5-10.9,0-8.6-7-15.5-15.5-15.5s-2.8.3-4.1.6c-2.8-4.2-5.7-8.2-8.7-12.2,21.8-29.1,34.7-56.7,35.9-76.8,7.3-4.1,11.8-11.8,11.8-20.2,0-12.8-10.4-23.3-23.3-23.3-8.4,0-16.1,4.5-20.2,11.8-7.7.5-16.4,2.6-25.7,6.2-14.4-11.7-32.5-18.1-51-18.1-18.6,0-36.6,6.4-51.1,18.1-22.1-8.5-40.1-8.8-50,1.1-11.6,11.6-9.9,33.9,4.7,63-2.9,2.9-4.5,6.8-4.5,10.9,0,8.6,7,15.5,15.5,15.5s5.5-.8,7.8-2.1c1.4,4.5,3.3,8.9,5.5,13.1-21.7,28.8-35.1,56.8-36.4,77.4-7.3,4.1-11.8,11.9-11.8,20.2,0,12.8,10.4,23.3,23.3,23.3ZM215.2,338.7c-12.2-6.1-22.4-15.5-29.6-27.1,9.1-11.7,18.9-22.8,29.4-33.3,10.5-10.5,21.7-20.4,33.4-29.5,11.7,9.1,22.8,19,33.2,29.5,10.5,10.5,20.3,21.6,29.5,33.3-.1.2-.3.4-.4.6h0c0,.1,0,.1,0,.1-7.1,11.3-17.2,20.4-29.1,26.3-1.3.7-2.1,2-2.1,3.5v12.2h-15.5v-56.6l10.5-10.5-5.5-5.5-11.6,11.6c-.7.7-1.1,1.7-1.1,2.7v58.2h-15.5v-58.2c0-1-.4-2-1.1-2.7l-11.6-11.6-5.5,5.5,10.5,10.5v56.6h-15.5v-12.2c0-1.5-.8-2.8-2.1-3.5h0ZM322.1,272.8c0,11.1-2.5,21.7-7,31.3-8.7-11-18.1-21.4-28-31.3-10.2-10.2-21-19.9-32.3-28.9,15-11.1,29.8-19.9,43.1-25.6,14.8,13.5,24.2,32.9,24.2,54.4ZM287.1,362v7.8s-77.6,0-77.6,0v-7.8h77.6ZM279.4,377.6v3.9h-62.1v-3.9h62.1ZM287.1,389.2v7.8s-77.6,0-77.6,0v-7.8h77.6ZM248.3,424.1c-11.5,0-21.1-8.4-22.9-19.4h45.9c-1.9,11-11.4,19.4-22.9,19.4ZM341.5,338.8c0,4.3-3.5,7.8-7.8,7.8s-7.8-3.5-7.8-7.8,3.5-7.8,7.8-7.8,7.8,3.5,7.8,7.8ZM333.7,354.3c1.5,0,3-.3,4.4-.7,12.3,25,14.6,44.9,5.9,53.6-8.5,8.5-27.3,6.6-51.3-4.7,1.4-1.4,2.3-3.3,2.3-5.5v-7.8c0-4.3-3.5-7.8-7.8-7.8v-3.9c4.3,0,7.8-3.5,7.8-7.8v-7.8c0-4.3-3.5-7.8-7.8-7.8v-9.8c11.6-6.3,21.6-15.3,28.9-26.3,2.3,3.1,4.6,6.3,6.7,9.6-3,2.9-4.7,6.9-4.7,11.1,0,8.6,7,15.5,15.5,15.5ZM345.3,199.1c8.6,0,15.5,7,15.5,15.5s-7,15.5-15.5,15.5-15.5-7-15.5-15.5,7-15.5,15.5-15.5ZM345.3,237.9c1.2,0,2.3-.1,3.4-.3-1.7,13.4-8.8,30.5-20.2,48.9.8-4.5,1.2-9.1,1.2-13.7,0-22.5-9.1-42.8-23.9-57.6,5.9-2.1,11.4-3.5,16.4-4.1-.2,1.2-.3,2.3-.3,3.5,0,12.8,10.4,23.3,23.3,23.3ZM248.3,199.1c16,0,30.7,5.1,42.8,13.8-13.4,6.2-28,15-42.8,26.1-14.9-11.2-29.5-20-42.8-26.1,12.5-9,27.4-13.8,42.8-13.8ZM152.8,216c6.7-6.7,20.3-6.9,38-.8-14.4,14.5-22.9,33.8-23.7,54.3-1.3-.4-2.7-.6-4-.6-1.5,0-3,.3-4.4.7-12.3-25-14.6-44.9-5.9-53.6ZM163,292.2c-4.3,0-7.8-3.5-7.8-7.8,0-4.3,3.5-7.8,7.8-7.8,1.4,0,2.8.4,4,1.1.2,4,.8,8,1.6,11.9-1.4,1.6-3.5,2.5-5.6,2.5ZM174.6,272.8c0-21.6,9.4-40.9,24.2-54.4,12.9,5.5,27.6,14,43.2,25.5-11.4,9-22.2,18.6-32.4,28.9-9.9,9.9-19.2,20.3-28,31.3-4.6-9.8-6.9-20.5-6.9-31.3ZM180.6,318.2c7.4,11,17.3,20,28.9,26.3v9.8c-4.3,0-7.8,3.5-7.8,7.8v7.8c0,4.3,3.5,7.8,7.8,7.8v3.9c-4.3,0-7.8,3.5-7.8,7.8v7.8c0,2.1.9,4.1,2.3,5.5-11.1,5.3-21.2,8.6-29.7,9.6.2-1.1.3-2.3.3-3.5,0-12.8-10.4-23.3-23.3-23.3s-2.3.1-3.5.3c2.3-18.1,14.3-42.3,32.8-67.4h0ZM151.4,393.1c8.6,0,15.5,7,15.5,15.5s-7,15.5-15.5,15.5-15.5-7-15.5-15.5,7-15.5,15.5-15.5Z"/>
</svg>