<?xml version="1.0" encoding="UTF-8"?>
<svg id="Layer_1" xmlns="http://www.w3.org/2000/svg" version="1.1" viewBox="0 0 500 500">
  <!-- Generator: Adobe Illustrator 29.1.0, SVG Export Plug-In . SVG Version: 2.1.0 Build 142)  -->
  <defs>
    <style>
      .st0 {
        fill: #fff;
      }

      .st1 {
        fill: #0a4362;
      }
    </style>
  </defs>
  <path id="House_2" class="st1" d="M249.9,476.4c-62.3,0-124.6,0-186.8,0-14.8,0-25.6-10.6-25.6-25.4,0-75.4,0-150.9,0-226.3,0-8,3.1-14.6,8.9-20,36.4-33.9,72.7-67.9,109.1-101.9,25.4-23.8,50.8-47.5,76.2-71.3,11.3-10.6,25.5-10.5,36.9.2,61.4,57.4,122.8,114.8,184.2,172.1,6.6,6.1,9.9,13.2,9.8,22.4-.2,74.7,0,149.3,0,224,0,16.2-10.3,26.4-26.6,26.4-62,0-124,0-186,0Z"/>
  <g>
    <path class="st0" d="M370.5,287.1c-6.1-3.3-13.4-2.9-19.2.9l-61.8,41.2c-3-8.5-11-14.2-20-14.2h-89.5c-1.1,0-2.2.4-3,1.2l-26.8,26.8-5.5-5.5c-1.7-1.7-4.4-1.7-6,0l-21.3,21.3c-1.7,1.7-1.7,4.4,0,6l5.5,5.5-14,14c-1.7,1.6-1.7,4.3-.1,6,1.6,1.7,4.3,1.7,6,.1,0,0,0,0,.1-.1l14-14,49.4,49.4-14,14c-1.7,1.6-1.7,4.3-.1,6,1.6,1.7,4.3,1.7,6,.1,0,0,0,0,.1-.1l14-14,5.5,5.5c1.7,1.7,4.4,1.7,6,0l21.3-21.3c1.7-1.7,1.7-4.4,0-6l-5.5-5.5,12.8-12.8h49.4c.9,0,1.8-.3,2.6-.9l96.6-72.4c4.7-3.5,7.4-9.1,7.5-14.9,0-6.9-3.7-13.3-9.9-16.5ZM192.8,428.3l-66.4-66.4,15.3-15.3,66.4,66.4-15.3,15.3ZM367.8,311.6l-95.4,71.6h-49.7c-1.1,0-2.2.4-3,1.2l-14,14-49.4-49.4,25.6-25.6h87.8c7.1,0,12.8,5.7,12.8,12.8s-5.7,12.8-12.8,12.8h-55.4c-2.4,0-4.3,1.9-4.3,4.3s1.9,4.3,4.3,4.3h55.4c10.8,0,19.8-8.1,21.1-18.9l65.5-43.7c4.7-3.1,10.9-1.8,14.1,2.8,1.1,1.7,1.7,3.6,1.7,5.6,0,3.2-1.5,6.2-4.1,8.1h0ZM197.7,306.5c2.4,0,4.3-1.9,4.3-4.3,0-.7-.2-1.3-.5-1.9-5.7-11.3-8.7-23.8-8.7-36.4,0-44.7,36.3-81,81-81s81,36.3,81,81c0,2.7-.1,5.3-.4,7.9-.2,2.3,1.4,4.4,3.8,4.7,2.3.2,4.4-1.4,4.7-3.8.3-2.9.5-5.9.4-8.9,0-49.4-40.1-89.5-89.5-89.5s-89.5,40.1-89.5,89.5c0,14,3.2,27.8,9.6,40.3.7,1.4,2.2,2.3,3.8,2.3h0Z"/>
    <path class="st0" d="M339,284.3c2.3.6,4.6-.8,5.2-3.1,9.6-38.9-14.2-78.1-53.1-87.7-38.9-9.6-78.1,14.2-87.7,53.1-1.4,5.7-2.1,11.5-2.1,17.3,0,14.5,4.3,28.7,12.5,40.8,1.3,2,3.9,2.6,5.9,1.3,2-1.3,2.6-3.9,1.3-5.9,0,0,0-.1-.1-.2-19.9-29.2-12.3-69,16.9-88.9,29.2-19.9,69-12.3,88.9,16.9,7.2,10.6,11.1,23.1,11.1,35.9,0,5.2-.6,10.3-1.8,15.3-.6,2.3.8,4.6,3.1,5.2,0,0,0,0,0,0Z"/>
    <path class="st0" d="M273.8,221.2c2.4,0,4.3-1.9,4.3-4.3v-4.3c0-2.4-1.9-4.3-4.3-4.3s-4.3,1.9-4.3,4.3v4.3c0,2.4,1.9,4.3,4.3,4.3ZM246.1,215.8c-2,1.2-2.7,3.8-1.6,5.8l2.1,3.7c1.2,2,3.8,2.7,5.8,1.5,2-1.2,2.7-3.8,1.5-5.8l-2.1-3.7c-1.2-2-3.8-2.7-5.8-1.6h0ZM235.3,236.7l-3.7-2.1c-2-1.2-4.6-.5-5.8,1.5-1.2,2-.5,4.6,1.5,5.8,0,0,0,0,0,0l3.7,2.1c2,1.2,4.6.5,5.8-1.5,1.2-2,.5-4.6-1.5-5.8,0,0,0,0,0,0ZM231.2,263.8c0-2.4-1.9-4.3-4.3-4.3h-4.3c-2.4,0-4.3,1.9-4.3,4.3s1.9,4.3,4.3,4.3h4.3c2.4,0,4.3-1.9,4.3-4.3ZM229.5,293.7c.7,0,1.5-.2,2.1-.6l3.7-2.1c2-1.2,2.8-3.8,1.6-5.8-1.2-2-3.8-2.8-5.8-1.6,0,0,0,0,0,0l-3.7,2.1c-2,1.2-2.7,3.8-1.6,5.8.8,1.3,2.2,2.1,3.7,2.1ZM295.7,310.3c.8,1.3,2.2,2.1,3.7,2.1,2.4,0,4.3-1.9,4.3-4.3,0-.7-.2-1.5-.6-2.1l-2.1-3.7c-1.2-2-3.8-2.7-5.8-1.5-2,1.2-2.7,3.8-1.5,5.8l2.1,3.7ZM312.3,291l3.7,2.1c2,1.2,4.6.4,5.8-1.6,1.2-2,.5-4.6-1.6-5.8l-3.7-2.1c-2-1.2-4.6-.5-5.8,1.5-1.2,2-.5,4.6,1.5,5.8,0,0,0,0,0,0ZM329.2,263.8c0-2.4-1.9-4.3-4.3-4.3h-4.3c-2.4,0-4.3,1.9-4.3,4.3s1.9,4.3,4.3,4.3h4.3c2.4,0,4.3-1.9,4.3-4.3ZM314.4,244.6c.7,0,1.5-.2,2.1-.6l3.7-2.1c2-1.2,2.8-3.8,1.6-5.8-1.2-2-3.8-2.8-5.8-1.6,0,0,0,0,0,0l-3.7,2.1c-2,1.2-2.7,3.8-1.6,5.8.8,1.3,2.2,2.1,3.7,2.1h0ZM301.5,215.8c-2-1.2-4.6-.5-5.8,1.6,0,0,0,0,0,0l-2.1,3.7c-1.2,2-.4,4.6,1.6,5.8,2,1.2,4.6.5,5.8-1.5l2.1-3.7c1.2-2,.5-4.6-1.6-5.8h0ZM269.5,263.8c0,2.4,1.9,4.3,4.3,4.3h21.3c2.4,0,4.3-1.9,4.3-4.3s-1.9-4.3-4.3-4.3h-17.1v-25.6c0-2.4-1.9-4.3-4.3-4.3s-4.3,1.9-4.3,4.3v29.8Z"/>
  </g>
</svg>