<?xml version="1.0" encoding="UTF-8"?>
<svg id="Layer_1" xmlns="http://www.w3.org/2000/svg" version="1.1" viewBox="0 0 500 500">
  <!-- Generator: Adobe Illustrator 29.1.0, SVG Export Plug-In . SVG Version: 2.1.0 Build 142)  -->
  <defs>
    <style>
      .st0 {
        fill: #fff;
      }

      .st1 {
        fill: #0a4362;
      }
    </style>
  </defs>
  <path id="House_2" class="st1" d="M249.9,476.4c-62.3,0-124.6,0-186.8,0-14.8,0-25.6-10.6-25.6-25.4,0-75.4,0-150.9,0-226.3,0-8,3.1-14.6,8.9-20,36.4-33.9,72.7-67.9,109.1-101.9,25.4-23.8,50.8-47.5,76.2-71.3,11.3-10.6,25.5-10.5,36.9.2,61.4,57.4,122.8,114.8,184.2,172.1,6.6,6.1,9.9,13.2,9.8,22.4-.2,74.7,0,149.3,0,224,0,16.2-10.3,26.4-26.6,26.4-62,0-124,0-186,0Z"/>
  <path class="st0" d="M358.8,370.4l-22.5-8.2c-2.1-.8-4.4.3-5.1,2.4,0,0,0,0,0,0l-1.4,3.8-26.1-9.5c-.7-.2-1.4-.3-2.1-.2l-54.3,9.6c-4.9.9-9.2,4-11.4,8.4l-24.9-9.1c-4-1.5-8.4-1.3-12.2.5-4.9,2.3-8.3,6.8-9.1,12.2-1,7.7,3.6,15,10.9,17.5l82.1,29.9c.4.2.9.2,1.4.2.4,0,.9,0,1.3-.2l22.9-7.7,2.4.9-1.4,3.8c-.8,2.1.3,4.4,2.4,5.1l22.5,8.2c.4.2.9.2,1.4.2,1.7,0,3.2-1,3.8-2.6l21.9-60.1c.7-2.1-.3-4.3-2.4-5.1ZM306.9,412l-22.9,7.7-80.8-29.4c-3.7-1.2-6.1-4.9-5.7-8.8.3-2.4,1.7-4.5,3.8-5.7,2.1-1.2,4.6-1.5,6.9-.7l25.9,9.4c0,.7,0,1.5.2,2.2,1.6,8.7,9.8,14.5,18.5,13l45-7.9-1.4-7.9-45,7.9c-4.3.7-8.5-2.1-9.3-6.5-.2-.9-.2-1.8,0-2.8,0-.1,0-.3,0-.4,0-.3.1-.7.3-1,1-2.7,3.3-4.6,6.1-5.1l53.3-9.4,25.1,9.1-13.7,37.6-3.8-1.4c-.9-.3-1.8-.3-2.6,0h0ZM333.1,429.1l-15-5.5,19.1-52.6,15,5.5-19.1,52.6ZM213.2,260.6c1.3,4.7,3.7,9.1,6.9,12.7,0,.3-.1.6-.1,1v21.8c0,6.6,5.4,12,12,12v40c0,1.5.8,2.9,2.2,3.6l8,4c1.1.6,2.4.6,3.6,0l8-4c1.4-.7,2.2-2.1,2.2-3.6v-40c6.6,0,12-5.4,12-12v-21.8c0-.3,0-.7-.1-1,2.7-2.9,4.8-6.4,6.1-10.1,5.9,1,11.8-1.7,14.9-6.8,3.8-6.3,2.8-14.4-2.5-19.5l-32.5-32.5c-5.2-5.3-12.4-8.2-19.8-8.2h-42c-.5,0-1.1.1-1.6.3l-27.2,11.7h-3.2v-8c0-2.2-1.8-4-4-4h-32c-2.2,0-4,1.8-4,4v63.9c0,2.2,1.8,4,4,4h32c2.2,0,4-1.8,4-4v-8h.6c2.9,9.6,15.7,16,27.4,16,9.7.2,18.9-4,25.2-11.5ZM152.1,260.1h-24v-56h24v56ZM248,345.5l-4,2-4-2v-37.5h8v37.5ZM260,296c0,2.2-1.8,4-4,4h-24c-2.2,0-4-1.8-4-4v-16.3c2.7,1.6,5.6,2.7,8.6,3.4,1.4,3.4,4.8,5.4,8.4,4.9,3.6-.5,6.5-3.3,7-6.9.6-4.4-2.5-8.5-6.9-9.1-2.8-.4-5.7.7-7.4,3-2.3-.6-4.4-1.5-6.4-2.7,3.9-2.3,8.2-3.8,12.6-4.3,5.7.8,11.2,2.9,16,6.2v21.8ZM263,266.8c-5.7-3.7-12.2-6-19-6.7-6.7.7-13.2,3-18.9,6.7-2.4-3.1-4.1-6.8-4.7-10.7h19.6c5.9,0,11.2-3.2,14-8.4l11.2,11.2c.4.4.9.8,1.4,1.2-.8,2.4-2,4.7-3.6,6.7h0ZM255.8,238.3c-.4-3.3-1.8-6.3-4-8.8,9,3.1,15.3,11.4,16.1,20.9l-12.1-12.1ZM208,252.1c0,6.1-9.9,12-20,12s-20-5.9-20-12-1.8-4-4-4h-4v-32h4c.5,0,1.1-.1,1.6-.3l27.2-11.7h41.2c5.3,0,10.4,2.1,14.1,5.9l32.5,32.5c2.6,2.5,3.2,6.4,1.4,9.5-1.3,2.1-3.7,3.4-6.2,3.4h-.2c.1-1.1.2-2.2.2-3.3,0-17.6-14.3-32-32-32-5.4,0-10.7,1.4-15.3,4h-32.6v8h44c4.4,0,8,3.6,8,8s-3.6,8-8,8h-28c-2.2,0-4,1.8-4,4h0Z"/>
</svg>