<?xml version="1.0" encoding="UTF-8"?>
<svg id="Layer_1" xmlns="http://www.w3.org/2000/svg" version="1.1" viewBox="0 0 500 500">
  <!-- Generator: Adobe Illustrator 29.1.0, SVG Export Plug-In . SVG Version: 2.1.0 Build 142)  -->
  <defs>
    <style>
      .st0 {
        fill: #fff;
      }

      .st1 {
        fill: #0a4362;
      }
    </style>
  </defs>
  <path id="House_2" class="st1" d="M249.9,476.4c-62.3,0-124.6,0-186.8,0-14.8,0-25.6-10.6-25.6-25.4,0-75.4,0-150.9,0-226.3,0-8,3.1-14.6,8.9-20,36.4-33.9,72.7-67.9,109.1-101.9,25.4-23.8,50.8-47.5,76.2-71.3,11.3-10.6,25.5-10.5,36.9.2,61.4,57.4,122.8,114.8,184.2,172.1,6.6,6.1,9.9,13.2,9.8,22.4-.2,74.7,0,149.3,0,224,0,16.2-10.3,26.4-26.6,26.4-62,0-124,0-186,0Z"/>
  <g>
    <path class="st0" d="M172.4,419.3c-2.2,0-4-1.8-4-4,0-.4,0-.9.2-1.3l25.2-72.3c.8-2,3.1-3,5.2-2.2,1.9.8,2.9,2.8,2.3,4.8l-25.2,72.3c-.6,1.6-2,2.7-3.7,2.7"/>
    <path class="st0" d="M170.9,435.1c-6.2,0-11.9-2.8-15.6-7.7-3.8-4.9-5-11.1-3.5-17l16-61.9c.5-2.1,2.6-3.4,4.7-2.9,2.1.5,3.4,2.6,2.9,4.7,0,0,0,.1,0,.2l-16,61.9c-.9,3.6-.2,7.3,2.1,10.2,2.3,2.9,5.7,4.6,9.4,4.6s4,1.8,4,4-1.8,4-4,4M237.7,403.5h-2.7c-6.4,0-12.3-3-16.1-8.2-3.7-5.2-4.7-11.8-2.7-17.8l10.4-28.8-32.7-1.6c-6.7-.6-12.7-3.9-16.7-9.1-4-5.2-5.7-11.9-4.7-18.3l7.8-44.8c.3-2.2,2.3-3.6,4.5-3.3,2.2.3,3.6,2.3,3.3,4.5,0,0,0,.1,0,.2l-7.8,44.8c-.7,4.3.4,8.7,3.1,12.2,2.7,3.5,6.6,5.6,11,6.1l37.9,1.8c2.2.1,3.9,2,3.8,4.1,0,.4,0,.8-.2,1.1l-12.2,33.8c-1.2,3.6-.6,7.5,1.6,10.6,2.3,3.1,5.8,4.9,9.6,4.9h2.7c2.2,0,4,1.8,4,4s-1.8,4-4,4"/>
    <path class="st0" d="M143.4,320.2c-6.6,0-11.9-5.3-11.9-11.9,0-.8,0-1.7.3-2.5l7.9-31.5c.8-3.5,3.3-6.6,6.7-8.1l28.6-12.7c6.4-2.8,13.3-4,20.3-3.4l39.8,3.3c2.4.2,4.7,1.1,6.6,2.7l17.4,14.5,18.8-10.3c2.7-1.5,5.9-1.9,8.9-1.1,3,.8,5.6,2.8,7.2,5.6,1.6,2.7,2,5.9,1.1,9-.8,3.1-2.8,5.6-5.6,7.2l-26,14.3c-4.3,2.4-9.6,1.9-13.4-1.2l-11.8-7.2c-1.8-1.2-2.3-3.7-1-5.5,1.1-1.7,3.4-2.2,5.1-1.2l12.3,7.5c1.7,1.4,3.5,1.5,5,.7l26-14.3c1.9-1.1,2.5-3.5,1.4-5.4-1.1-1.9-3.5-2.6-5.4-1.5h0s-21.3,11.6-21.3,11.6c-1.4.8-3.2.6-4.4-.4l-19.5-16.2c-.6-.5-1.4-.8-2.2-.9l-39.8-3.3c-5.6-.4-11.2.5-16.4,2.8l-28.6,12.7c-1.1.5-2,1.5-2.3,2.7l-7.9,31.5c-.4,2.1.9,4.1,3,4.6,2.1.4,4.2-.9,4.7-3l7.1-27.6c.3-1.3,1.3-2.4,2.6-2.8l26.3-8.2c2.1-.7,4.3.4,5,2.4.7,2.1-.4,4.3-2.4,5,0,0-.2,0-.2,0l-24.2,7.6-6.5,25.3c-1.3,5.4-6,9.1-11.5,9.1"/>
    <path class="st0" d="M235.4,387.7c-2.2,0-3.9-1.8-3.9-4,0-.6.2-1.2.4-1.8l22.1-42.8c1.7-4.1-.3-8.7-4.3-10.3-.7-.3-1.4-.5-2.2-.5l-31.1-4.9c-1.1-.2-2.1-.8-2.7-1.8s-.8-2.1-.5-3.2l13.5-45.8c.6-2.1,2.8-3.3,4.9-2.7,2.1.6,3.3,2.8,2.7,4.9,0,0,0,0,0,.1l-12.2,41.4,26.4,4.2c4.8.5,9.3,3.4,11.9,7.8,2.5,4.4,2.8,9.8.8,14.4l-22.2,43c-.7,1.3-2,2.1-3.5,2.1M218.4,245.4c-13.1,0-23.7-10.6-23.7-23.7s10.6-23.7,23.7-23.7,23.7,10.6,23.7,23.7-10.6,23.7-23.7,23.7M218.4,205.9c-8.7,0-15.8,7.1-15.8,15.8s7.1,15.8,15.8,15.8,15.8-7.1,15.8-15.8-7.1-15.8-15.8-15.8M356.7,435.1c-2.2,0-4-1.8-4-4v-134.3c0-2.2,1.8-4,4-4s4,1.8,4,4v134.3c0,2.2-1.8,4-4,4M333,435.1c-2.2,0-4-1.8-4-4v-71.1c0-2.2,1.8-4,4-4s4,1.8,4,4v71.1c0,2.2-1.8,4-4,4M238.1,435.1c-2.2,0-4-1.8-4-4v-15.8c0-2.2,1.8-4,4-4s4,1.8,4,4v15.8c0,2.2-1.8,4-4,4M309.3,435.1c-2.2,0-4-1.8-4-4v-39.5c0-2.2,1.8-4,4-4s4,1.8,4,4v39.5c0,2.2-1.8,4-4,4M285.6,435.1c-2.2,0-4-1.8-4-4v-23.7c0-2.2,1.8-4,4-4s4,1.8,4,4v23.7c0,2.2-1.8,4-4,4M261.9,435.1c-2.2,0-4-1.8-4-4v-7.9c0-2.2,1.8-4,4-4s4,1.8,4,4v7.9c0,2.2-1.8,4-4,4M309.3,379.8c-6.5,0-11.9-5.3-11.9-11.9s5.3-11.9,11.9-11.9,11.9,5.3,11.9,11.9-5.3,11.9-11.9,11.9M309.3,364c-2.2,0-4,1.8-4,4s1.8,4,4,4,4-1.8,4-4-1.8-4-4-4M261.9,411.4c-6.5,0-11.9-5.3-11.9-11.9s5.3-11.9,11.9-11.9,11.9,5.3,11.9,11.9-5.3,11.9-11.9,11.9M261.9,395.6c-2.2,0-4,1.8-4,4s1.8,4,4,4,4-1.8,4-4-1.8-4-4-4"/>
    <path class="st0" d="M301.4,368.4l-36.2,24.1c2.5,1.2,4.2,3.8,4.4,6.6l36.2-24.1c-2.5-1.2-4.2-3.8-4.4-6.6M255.2,395.6h-32.8c-1.1,0-2.2.5-3,1.4l-26.5,30.3h-21.9c-2.2,0-4,1.8-4,4s1.8,4,4,4h23.7c1.1,0,2.2-.5,3-1.4l26.5-30.3h31c-.8-1.2-1.2-2.5-1.2-4,0-1.5.5-2.8,1.2-4M356.7,257.3c-2.4,0-4.7-1.2-6.2-3.2l-42.4,106.1c.4,0,.8-.2,1.2-.2,2.4,0,4.7,1.2,6.2,3.2l42.4-106.1c-.4,0-.8.2-1.2.2"/>
    <path class="st0" d="M356.7,261.2c-6.5,0-11.9-5.3-11.9-11.9s5.3-11.9,11.9-11.9,11.9,5.3,11.9,11.9-5.3,11.9-11.9,11.9M356.7,245.4c-2.2,0-4,1.8-4,4s1.8,4,4,4,4-1.8,4-4-1.8-4-4-4"/>
    <circle class="st0" cx="214.4" cy="431.1" r="4"/>
  </g>
</svg>