<?xml version="1.0" encoding="UTF-8"?>
<svg id="Layer_1" xmlns="http://www.w3.org/2000/svg" version="1.1" viewBox="0 0 500 500">
  <!-- Generator: Adobe Illustrator 29.1.0, SVG Export Plug-In . SVG Version: 2.1.0 Build 142)  -->
  <defs>
    <style>
      .st0 {
        fill: #fff;
      }

      .st1 {
        fill: #0a4362;
      }
    </style>
  </defs>
  <path id="House_2" class="st1" d="M249.9,476.4c-62.3,0-124.6,0-186.8,0-14.8,0-25.6-10.6-25.6-25.4,0-75.4,0-150.9,0-226.3,0-8,3.1-14.6,8.9-20,36.4-33.9,72.7-67.9,109.1-101.9,25.4-23.8,50.8-47.5,76.2-71.3,11.3-10.6,25.5-10.5,36.9.2,61.4,57.4,122.8,114.8,184.2,172.1,6.6,6.1,9.9,13.2,9.8,22.4-.2,74.7,0,149.3,0,224,0,16.2-10.3,26.4-26.6,26.4-62,0-124,0-186,0Z"/>
  <g>
    <path class="st0" d="M278.9,222.2c-56.2,0-102,45.8-102,102s45.8,102,102,102,102-45.8,102-102-45.8-102-102-102ZM284,415.8v-9.9c0-2.8-2.3-5.1-5.1-5.1s-5.1,2.3-5.1,5.1v9.9c-46.5-2.6-83.9-39.9-86.4-86.4h15c2.8,0,5.1-2.3,5.1-5.1s-2.3-5.1-5.1-5.1h-15c2.6-46.5,39.9-83.9,86.4-86.4v9.9c0,2.8,2.3,5.1,5.1,5.1s5.1-2.3,5.1-5.1v-9.9c46.5,2.6,83.9,39.9,86.4,86.4h-9.9c-2.8,0-5.1,2.3-5.1,5.1s2.3,5.1,5.1,5.1h9.9c-2.6,46.5-39.9,83.9-86.4,86.4ZM120.8,245.2h73.4c2.8,0,5.1-2.3,5.1-5.1s-2.3-5.1-5.1-5.1h-73.4c-2.8,0-5.1,2.3-5.1,5.1s2.3,5.1,5.1,5.1ZM101.6,235h-1.3c-2.8,0-5.1,2.3-5.1,5.1s2.3,5.1,5.1,5.1h1.3c2.8,0,5.1-2.3,5.1-5.1s-2.3-5.1-5.1-5.1ZM179.4,268.1h0c0-2.8-2.3-5.1-5.1-5.1h-57.3c0,0,0,0,0,0-2.8,0-5.1,2.3-5.1,5.1h0c0,2.8,2.3,5.1,5.1,5.1h57.3c0,0,0,0,0,0,2.8,0,5.1-2.3,5.1-5.1ZM162.9,291.1h-29.4c-2.8,0-5.1,2.3-5.1,5.1s2.3,5.1,5.1,5.1h29.4c2.8,0,5.1-2.3,5.1-5.1s-2.3-5.1-5.1-5.1ZM160.1,319.1h-10c-2.8,0-5.1,2.3-5.1,5.1s2.3,5.1,5.1,5.1h10c2.8,0,5.1-2.3,5.1-5.1s-2.3-5.1-5.1-5.1Z"/>
    <path class="st0" d="M305.4,280.4l-29.1,38.8h-23c-2.8,0-5.1,2.3-5.1,5.1s2.3,5.1,5.1,5.1h25.5c1.6,0,3.1-.8,4.1-2l30.6-40.8c1.7-2.3,1.2-5.4-1-7.1-2.3-1.7-5.4-1.2-7.1,1,0,0,0,0,0,0h0Z"/>
  </g>
</svg>