<svg xmlns="http://www.w3.org/2000/svg" width="100" height="28" viewBox="0 0 100 28" fill="none"><path d="M22.0837 27.5383H16.0452V0.423655H22.0837V27.5383ZM9.06735 14.0002V27.5383H3.02886V14.0002H0V9.05105H3.02886V7.43344C3.02886 3.17756 5.65509 0 10.5241 0C11.5594 0 12.7096 0.154001 13.9557 0.462155L13.3422 5.35366C12.8055 5.19951 12.1153 5.06468 11.4635 5.06468C10.1217 5.06468 8.85649 5.70032 8.85649 7.72226V9.05105H13.3614V14.0002H9.06735Z" fill="#1E1E1E"/><path d="M30.9207 18.3139C30.9207 20.8174 32.5501 22.5698 34.8889 22.5698C37.2276 22.5698 38.8569 20.8174 38.8569 18.3139C38.8569 15.8105 37.2276 14.0772 34.8889 14.0581C32.5501 14.0581 30.9207 15.8105 30.9207 18.3139ZM39.0678 27.5383L38.8761 25.5934C37.8218 26.9028 36.0391 27.9235 33.4511 27.9235C28.5436 27.9235 24.9397 23.8409 24.9397 18.3139C24.9397 12.7869 28.5436 8.6659 33.4511 8.6659C36.0391 8.6659 37.8218 9.7057 38.8761 10.996L39.0678 9.05105H44.9146V27.5383H39.0678Z" fill="#1E1E1E"/><path d="M56.2057 14.0002V19.97C56.2057 23.1091 58.9854 22.8394 61.8991 22.1461L62.3208 27.0761C60.979 27.5768 58.9661 27.9234 57.4326 27.9234C53.2152 27.9234 50.1672 25.8822 50.1672 20.9522V14.0002H47.2342V9.05102H50.1672V3.1197H56.0141V9.05102H61.209V14.0002H56.2057Z" fill="#1E1E1E"/><path d="M71.3471 1.81746C72.6632 1.40611 74.0621 2.14444 74.4716 3.46655C74.881 4.78866 74.146 6.19413 72.83 6.60543C71.5139 7.01663 70.1149 6.27835 69.7056 4.95619C69.2961 3.63423 70.0309 2.22885 71.3471 1.81746Z" fill="#F6C005"/><path d="M84.7965 23.0924C82.1417 23.0924 79.9822 20.923 79.9822 18.2561C79.9822 15.5892 82.1417 13.4198 84.7965 13.4198C87.4512 13.4198 89.6112 15.5892 89.6112 18.2561C89.6112 20.923 87.4512 23.0924 84.7965 23.0924ZM98.0215 6.12795C97.1549 5.13017 95.646 5.02725 94.6529 5.89787C93.6597 6.76926 93.5571 8.28426 94.4239 9.28204C95.2021 10.1778 95.4301 11.3239 95.0186 12.2743C94.7103 12.9862 94.0793 13.4562 93.2138 13.6467C91.5847 10.6562 88.4229 8.62309 84.7965 8.62309C79.5263 8.62309 75.2375 12.9178 75.21 18.2058C75.21 18.2136 75.2077 18.2207 75.2074 18.2285C75.179 20.7305 74.1676 22.4486 73.2408 22.9862C72.8909 23.1881 72.3138 23.3932 71.3424 22.8441C69.1388 21.5992 69.8891 16.2263 71.8486 11.962C72.4008 10.7598 71.8786 9.33466 70.6813 8.77924C69.4849 8.22552 68.0659 8.7501 67.513 9.95189C64.5661 16.3662 63.8831 24.1328 69.0015 27.0246C70.1517 27.6747 71.3351 28.0005 72.4915 28C73.5764 28 74.638 27.7136 75.6271 27.1407C76.5229 26.6214 77.3033 25.8839 77.9499 24.9878C79.6918 26.7752 82.116 27.8891 84.7965 27.8891C90.0697 27.8891 94.3602 23.591 94.384 18.2998C96.6727 17.7512 98.4866 16.2906 99.3971 14.1871C100.552 11.5212 100.024 8.4332 98.0215 6.12795Z" fill="#F6C005"/></svg>