<?xml version="1.0" encoding="UTF-8"?>
<svg width="93px" height="50px" viewBox="0 0 93 50" version="1.1" xmlns="http://www.w3.org/2000/svg">
    <!-- Generator: Sketch 50 (54983) - http://www.bohemiancoding.com/sketch -->
    <title>Artboard 1</title>
    <desc>Created with Sketch.</desc>
    <defs></defs>
    <g id="Artboard-1" stroke="none" stroke-width="1" fill="none" fill-rule="evenodd">
        <path d="M78.4,36.9 C78.7,35.7 79.2,34.8 80,34.2 C80.8,33.6 81.8,33.2 83.1,33.2 C84.4,33.2 85.3,33.5 86,34.2 C86.7,34.9 87.1,35.8 87.3,36.9 L78.4,36.9 Z M92.9,39.3 C92.9,37.7 92.7,36.3 92.2,35 C91.8,33.7 91.1,32.6 90.3,31.7 C89.5,30.8 88.4,30.1 87.2,29.6 C86,29.1 84.6,28.9 83.2,28.9 C81.7,28.9 80.3,29.2 79,29.7 C77.8,30.2 76.7,31 75.8,31.9 C74.9,32.8 74.3,33.9 73.8,35.2 C73.3,36.5 73.1,37.8 73.1,39.2 C73.1,40.7 73.3,42 73.8,43.3 C74.3,44.6 75,45.6 75.9,46.6 C76.8,47.5 77.9,48.2 79.2,48.8 C80.5,49.3 82,49.6 83.6,49.6 C85.5,49.6 87.1,49.3 88.3,48.8 C89.6,48.3 90.6,47.7 91.4,47 L89.4,42.6 C88.7,43.2 87.9,43.7 87,44.1 C86.1,44.5 85,44.7 83.8,44.7 C83.2,44.7 82.7,44.6 82.1,44.5 C81.5,44.4 81,44.1 80.5,43.8 C80,43.5 79.6,43.1 79.3,42.6 C78.9,42.1 78.7,41.6 78.5,40.9 L78.5,40.8 L93,40.8 L93,39.3 L92.9,39.3 Z"
              id="Fill-1" fill="#6D6E72"></path>
        <path d="M69.9,21.5 C68.9,21.5 67.9,21.6 67.1,21.9 C66.2,22.2 65.5,22.6 64.9,23.2 C64.3,23.8 63.8,24.5 63.4,25.5 C63,26.4 62.8,27.5 62.8,28.8 L62.8,29.8 L58.8,29.8 L58.8,34.2 L62.8,34.2 L62.8,49.5 L68,49.5 L68,34.2 L73.6,34.2 L73.6,29.8 L68,29.8 L68,29.4 C68,28.4 68.2,27.6 68.6,27.1 C69,26.6 69.7,26.4 70.8,26.4 C71.2,26.4 71.7,26.4 72.2,26.5 C72.7,26.6 73.2,26.6 73.8,26.7 L73.8,21.9 C73.1,21.8 72.5,21.7 71.9,21.6 C71.3,21.5 70.6,21.5 69.9,21.5"
              id="Fill-3" fill="#6D6E72"></path>
        <path d="M27.4,29.3 C26,29.3 24.7,29.6 23.6,30.2 C22.5,30.8 21.7,31.6 21,32.6 L21,29.8 L16,29.8 L16,49.4 L21.2,49.4 L21.2,40 C21.2,38.2 21.5,36.9 22.2,35.8 C22.9,34.8 24,34.2 25.5,34.2 C26.6,34.2 27.5,34.5 28.1,35.2 C28.7,35.9 29.1,36.9 29.1,38.4 L29.1,49.3 L34.4,49.3 L34.4,37.3 C34.4,34.8 33.8,32.9 32.7,31.5 C31.5,30 29.7,29.3 27.4,29.3"
              id="Fill-5" fill="#6D6E72"></path>
        <path d="M39.7,26.9 L39.7,27.2 L39.7,48 L39.7,49.5 L44.9,49.5 L44.9,48 L44.9,22 C42,21.9 39.7,24.1 39.7,26.9"
              id="Fill-7" fill="#6D6E72"></path>
        <path d="M5.5,21.9 L5.5,49.4 L10.7,49.4 L10.7,27.4 C10.7,24.4 8.336,21.9 5.5,21.9" id="Fill-9"
              fill="#6D6E72"></path>
        <path d="M25.2,0.3 L24.8,0 L23,1.2 L12,8.4 L12,7.1 L5.5,7.1 L5.5,12.7 L5.6,12.7 L0,16.4 C1.8,19.1 5.4,19.8 8.1,18.1 L24.8,7 L41.5,18.1 C44.2,19.9 47.8,19.1 49.6,16.4 L25.2,0.3 Z"
              id="Fill-11" fill="#1D8CDD"></path>
        <polygon id="Fill-13" fill="#6D6E72" points="50.1 49.4 55.3 49.4 55.3 29.8 50.1 29.8"></polygon>
    </g>
</svg>