<svg width="323" height="60" xmlns="http://www.w3.org/2000/svg" fill="none" preserveAspectRatio="none">
 <g>
  <title>Layer 1</title>
  <g stroke="null" id="svg_10">
   <path stroke="null" d="m243.69911,12.24637l7.22717,0l0,3.61964c1.82528,-3.02869 4.62625,-4.7031 8.25227,-4.7031c4.4262,0 7.50219,1.87138 8.87762,5.63877c1.90059,-3.54575 5.10165,-5.63877 9.27771,-5.63877c6.27704,0 9.75278,3.69353 9.75278,11.00668l0.12507,22.50592l-7.30214,0l0,-20.73303c0,-4.30912 -1.57548,-6.10661 -4.92648,-6.10661c-3.55105,0 -5.72666,2.48696 -6.07666,7.58401l0.20004,19.28013l-7.07722,0l0,-20.75753c0,-4.30912 -1.57548,-6.10661 -5.05122,-6.10661c-3.75109,0 -6.07699,2.9548 -6.07699,8.66743l0,18.19671l-7.22717,0l0,-32.45365l0.02522,0z" fill="#0D0D0D" id="svg_1"/>
   <path stroke="null" d="m31.33726,12.17248l7.50212,0l0,3.81665c2.65101,-3.22566 6.35201,-4.82621 10.90329,-4.82621c8.92772,0 15.40446,7.58401 15.40446,17.26103c0,9.60314 -6.47675,17.31026 -15.40446,17.31026c-4.57615,0 -8.1773,-1.60062 -10.90329,-4.90017l0,18.9601l-7.50212,0l0,-47.62167zm26.30768,16.25147c0,-5.90963 -3.82607,-10.14486 -9.47776,-10.14486c-5.52662,0 -9.32781,4.23523 -9.32781,10.14486c0,5.90963 3.87616,10.21855 9.32781,10.21855c5.52662,0 9.47776,-4.30892 9.47776,-10.21855z" fill="#0D0D0D" id="svg_2"/>
   <path stroke="null" d="m101.83267,28.4983c0,9.75092 -6.95215,17.18724 -17.10501,17.18724c-10.07789,0 -17.17999,-7.46083 -17.17999,-17.18724c0,-9.72625 7.15186,-17.31026 17.17999,-17.31026c10.10277,-0.02463 17.10501,7.58401 17.10501,17.31026zm-10.20296,7.23926c1.8505,-1.94524 2.72565,-4.35831 2.72565,-7.26389c0,-2.88094 -0.87515,-5.29402 -2.72565,-7.23929c-1.8505,-1.94524 -4.10142,-2.9548 -6.87717,-2.9548c-2.80063,0 -5.12653,0.93571 -6.95181,2.88094c-1.85084,1.94524 -2.72599,4.35834 -2.72599,7.31315c0,2.88094 0.87515,5.31865 2.72599,7.26389c1.8505,1.89591 4.15118,2.83178 6.95181,2.83178c2.77575,0 5.02667,-0.93587 6.87717,-2.83178z" fill="#0D0D0D" id="svg_3"/>
   <path stroke="null" d="m159.39953,16.01372l0,-3.84125l7.42721,0l0,32.50304l-7.42721,0l0,-3.81665c-2.65101,3.2254 -6.35201,4.82602 -10.90329,4.82602c-8.92772,0 -15.40446,-7.58398 -15.40446,-17.26093c0,-9.52928 6.47675,-17.26103 15.40446,-17.26103c4.55127,0 8.15242,1.62515 10.90329,4.85081zm-2.67589,19.67417c1.77552,-1.94524 2.65068,-4.35841 2.65068,-7.26395c0,-2.88094 -0.90003,-5.31868 -2.65068,-7.19003c-1.77552,-1.94527 -4.02611,-2.88094 -6.7521,-2.88094c-2.72565,0 -4.97624,0.93567 -6.75177,2.88094c-1.77552,1.87135 -2.65101,4.30908 -2.65101,7.19003c0,5.90963 3.90138,10.07091 9.40278,10.07091c2.80096,0 5.05155,-0.93554 6.7521,-2.80695z" fill="#0D0D0D" id="svg_4"/>
   <path stroke="null" d="m172.428,0.20586l7.50219,0l0,15.38962c2.45063,-2.9548 5.80164,-4.4322 10.02813,-4.4322c7.30214,0 11.5283,4.77695 11.5283,12.55794l0,20.95463l-7.50219,0l0,-19.55109c0,-4.90007 -2.10064,-7.31315 -6.40177,-7.31315c-4.62658,0 -7.62726,3.54575 -7.62726,9.25838l0,17.60585l-7.50252,0l0,-44.46999l-0.02488,0z" fill="#0D0D0D" id="svg_5"/>
   <path stroke="null" d="m240.02265,28.4983c0,9.75092 -6.95215,17.18724 -17.10501,17.18724c-10.07789,0 -17.17999,-7.46083 -17.17999,-17.18724c0,-9.72625 7.15186,-17.31026 17.17999,-17.31026c10.07789,-0.02463 17.10501,7.58401 17.10501,17.31026zm-10.22818,7.23926c1.85084,-1.94524 2.72599,-4.35831 2.72599,-7.26389c0,-2.88094 -0.90037,-5.29402 -2.72599,-7.23929c-1.8505,-1.94524 -4.10109,-2.9548 -6.90205,-2.9548c-2.80063,0 -5.12619,0.93571 -6.95181,2.88094c-1.82562,1.94524 -2.72599,4.35834 -2.72599,7.31315c0,2.88094 0.90037,5.31865 2.72599,7.26389c1.8505,1.89591 4.17606,2.83178 6.95181,2.83178c2.82584,0 5.05155,-0.93587 6.90205,-2.83178z" fill="#0D0D0D" id="svg_6"/>
   <path stroke="null" d="m123.88871,32.7334c0.07497,3.89038 -1.90059,6.25439 -5.05122,6.25439c-3.27603,0 -5.2516,-1.94524 -5.2516,-5.51559l0,-14.84803l16.22952,0l0,-6.45133l-16.25474,0l0,-11.96698l-7.50219,0l0,33.0446c0,7.73189 4.9016,12.43475 13.0288,12.43475c7.15219,0 12.35369,-5.09681 11.92873,-12.95182l-7.12731,0z" fill="#0D0D0D" id="svg_7"/>
   <path stroke="null" d="m14.40654,24.0659c-4.30127,-0.46784 -5.52662,-1.4774 -5.52662,-3.29952c0,-1.82212 1.90056,-2.83168 4.82643,-2.83168c2.95085,0 4.97644,1.57589 5.92674,4.33371l6.47688,-1.96987c-1.82552,-5.58951 -6.70197,-9.20916 -12.40362,-9.20916c-6.92707,0.02463 -12.25361,4.11211 -12.25361,9.67699c0,5.9096 4.15122,9.60314 12.12857,10.41569c5.17649,0.54173 6.95201,1.82215 6.95201,3.89041c0,2.21637 -2.25066,3.84148 -6.27684,3.84148c-3.67608,0 -6.20183,-1.94524 -7.37715,-5.09714l-6.85202,2.06839c0.87526,2.53616 2.30068,4.70287 4.35126,6.42663c2.72582,2.21603 6.00178,3.34888 9.87791,3.34888c7.90234,0 13.57901,-4.4324 13.57901,-10.93286c0.02498,-6.22972 -4.50135,-9.77551 -13.42896,-10.66196z" fill="#0D0D0D" id="svg_8"/>
   <path stroke="null" d="m315.37031,33.79232c-1.05032,3.22573 -3.82607,5.29379 -7.60238,5.29379c-5.2516,0 -8.67758,-3.34855 -9.50297,-8.93816l24.70773,0l0,-3.42264c0,-9.1353 -6.42699,-15.58663 -15.3547,-15.58663c-9.75311,0 -16.38014,7.58401 -16.38014,17.31026c0,9.80027 6.37689,17.18728 16.40502,17.18728c6.92727,0 12.60384,-3.96463 14.50443,-9.82484l-6.77698,-2.01906zm-7.75233,-16.25154c4.62625,0 8.35246,3.02866 8.55251,6.84531l-17.5552,0c1.15017,-4.08751 4.55127,-6.84531 9.00269,-6.84531z" fill="#0D0D0D" id="svg_9"/>
  </g>
 </g>

</svg>