<?xml version="1.0" encoding="UTF-8"?>
<svg id="Layer_1" data-name="Layer 1" xmlns="http://www.w3.org/2000/svg" version="1.1" viewBox="0 0 208.1 48.2">
  <defs>
    <style>
      .cls-1 {
        fill: #00aeef;
      }

      .cls-1, .cls-2, .cls-3 {
        stroke-width: 0px;
      }

      .cls-2 {
        fill: none;
      }

      .cls-3 {
        fill: #585858;
      }
    </style>
  </defs>
  <path class="cls-2" d="M104,24.3"/>
  <path class="cls-2" d="M104,24.3"/>
  <path class="cls-1" d="M37.9,1.1L2.3,0C.9,0-.2,1.1,0,2.6l6,44.1c.2,1.5,1.3,1.9,2.5,1.1l4.8-3.4c1.2-.8,2.9-1.5,4.8-1.4s16.5,1.1,16.5,1.1c1.5,0,2.7-1,2.9-2.5l2.8-37.7c.2-1.5-.9-2.7-2.4-2.8ZM35,40.2c0,.6-.5,1-1.1.8l-11.3-2.4c-1.6-.3-2.7-1.2-2.9-2.8l-2.9-26.1c-.1-.6.4-1.2.9-1.3l18.4-3.9c.7,0,1.1.2,1.1.8l-2.2,34.9Z"/>
  <path class="cls-3" d="M93.7,21.4l-2.1,17.2c0,.5.3,1,.9,1h5.2c.4,0,.6,0,.7-.5l2.2-17.6c0-.4-.3-.7-.7-.7h-5.4c-.4,0-.7.2-.8.6M202.1,27.6c-1.5-.6-3-1.2-2.8-2.4.1-1,1-1.3,2.1-1.3s3.2.6,4.3,1.1c.5.2,1,0,1.2-.5l1.1-3.2c.1-.3,0-.6-.2-.8-1.7-1.3-4-1.8-6.3-1.8-4.1,0-8.2,2-8.7,6.7-.4,3.6,2.6,5,5.3,6.3,1.3.6,2.6,1.2,2.4,2.3-.1,1.1-1,1.3-2.1,1.3-1.6,0-4-.6-5.4-1.1-.4,0-.8,0-.9.4l-1.1,3.4c-.1.4,0,.9.4,1,1.5.7,4.1,1.3,6.4,1.3,5.9,0,8.9-2.5,9.4-6.9.3-3.6-2.6-4.8-5.1-5.8M82.7,18.6c-3.3,0-6.9.9-9.2,1.8-.9.4-1.5.9-1.6,1.6l-2.1,16.9c0,.4.3.6.7.6h5.3c.4,0,.7,0,.7-.5l1.8-14.6c0-.3.2-.4.4-.5.8-.3,1.8-.4,2.6-.4,1.3,0,2.2.7,1.9,2.9l-1.5,12.4c0,.4.3.6.7.6h5.3c.4,0,.6,0,.7-.5l1.6-13.1c.7-6.1-3.1-7.2-7.3-7.2M115,29.1c-.4,3.7-2,5.9-4.6,5.9s-.7,0-1.1,0-.6-.4-.6-.8l1.1-9.2c0-.8.7-1.1,1.4-1.2h.9c2.4,0,3.3,2,2.9,5.4M113.2,18.7c-2.8,0-6.8.8-8.1,1.2-1.3.5-1.5,1.4-1.6,2.5l-3.1,24.8c0,.4.3.9.7.9h5.3c.4,0,.7-.3.7-.7l.8-6.5c0-.5.5-.8,1-.7.6,0,1.2,0,1.8,0,7.6,0,10.5-5.3,11.2-11.2.9-8.3-3.7-10.4-8.7-10.4M145.6,33.6c-.1.8-.2,1.3-.9,1.5h-.1c-.4,0-.8,0-1.1,0-2.2,0-2.7-2.5-2.4-5.1.4-3,1.4-6.3,4.3-6.3s.5,0,.7.1c.4.1.6.4.5.8,0,0-1,8.9-1,8.9ZM153.7,21.9c.1-.7-.1-1.4-.8-1.7-2.4-1-4.6-1.4-6.5-1.4-8.2,0-11.4,5.5-12.1,11-.7,5.5.6,10.5,6.9,10.5s2.7-.3,3.8-1c.5-.3,1.1,0,1.3.5.1.3.4.6.7.6h4.4c.5,0,.9-.5.8-1-.2-1.7-.1-3.5.1-5.2l1.4-12.3h0ZM183.3,23.3c1.1,0,2,.6,1.8,1.7-.3,2.5-3.1,3.5-5.5,3.5h-.8c-.6-.1-.9-.6-.7-1.2.8-2.2,2.6-4,5.2-4M183.1,35.3c-2.5,0-4.9-.9-5.3-3-.1-.3.1-.5.4-.5,1,.8,2.1.7,3.2.7,4.3,0,8.8-2.5,9.4-7.5.5-4.3-2.5-6.3-7-6.3-8,0-11.6,5.6-12.3,11.4-.7,5.6,1.8,10.3,9.1,10.3s6.1-.6,7.5-1c.4,0,.6-.4.6-.8v-3.2c0-.5-.4-.8-.9-.7-1.4.3-3.1.6-4.7.6M170.7,24c.6-1.2,1.2-2.2,1.9-3.1.3-.4.3-1-.2-1.2-1.3-.5-3.8-1.1-6-1.1-5.7,0-10.8,2.9-11.8,10.8-.9,7.7,3.4,10.8,8.9,10.8s3.2-.2,4.8-.6h.1c.9-.2,1.6-.9,1.6-1.9v-2.3c.1-.5-.3-.8-.8-.7-1.6.4-2.9.6-4,.6-2.8,0-4.5-1.2-3.9-5.8.6-4.5,2.4-5.7,5.2-5.7s2.6.4,3.4.6c.3.1.6,0,.8-.4M131.8,35.1c-1.2,0-2-.5-1.8-2.2l2.3-18.7c.1-.4-.3-.6-.7-.6h-5.4c-.4,0-.6.1-.7.4l-2.4,19.3c-.5,4.2.5,6.9,5.2,6.9s2.5-.2,4.5-1c.5-.2.7-.7.5-1.2-.4-.8-.7-1.7-.9-2.7,0-.2-.2-.3-.4-.3-.1.1-.2.1-.2.1M63.2,14.5c0-.4.4-.8.9-.8h5.2c.5,0,.9.4.9,1v.5c0,0-2,14.9-2,14.9-.8,6.8-3.7,10.2-11.5,10.2s-9.8-3.2-8.9-10.3l1.9-15.4v-.2c0-.4.4-.7.9-.7h5.4c.4,0,.7.3.7.7v.2l-1.9,15.2c-.4,3.1-.4,5,2.6,5s3.4-1.7,3.9-5l1.9-14.8v-.5ZM94.6,14.4l-.5,3.9c0,.4.3.8.7.8h5.4c.4,0,.7-.3.7-.6l.5-3.9c0-.4-.3-.9-.7-.9h-5.4c-.4,0-.7.4-.7.7"/>
</svg>